<?xml version="1.0" encoding="utf-8"?>
<!-- Generator: Adobe Illustrator 26.0.0, SVG Export Plug-In . SVG Version: 6.00 Build 0)  -->
<svg version="1.1" id="Capa_1" xmlns="http://www.w3.org/2000/svg" xmlns:xlink="http://www.w3.org/1999/xlink" x="0px" y="0px"
	 viewBox="0 0 500 500" style="enable-background:new 0 0 500 500;" xml:space="preserve">
<style type="text/css">
	.st0{fill:#00A19A;stroke:#000000;stroke-miterlimit:10;}
	.st1{fill:#F39200;stroke:#000000;stroke-miterlimit:10;}
	.st2{fill:#009FE3;stroke:#000000;stroke-miterlimit:10;}
	.st3{fill:#E63A51;}
	.st4{fill:#F9C4AE;}
	.st5{fill:#E7E8E9;}
	.st6{fill:#4676BA;}
	.st7{fill:#D1142B;}
	.st8{fill:#595A5C;}
	.st9{fill:#3763AD;}
	.st10{fill:#5783C3;}
	.st11{fill:#F2AD97;}
	.st12{fill:#D1D2D4;}
	.st13{fill:#414142;}
	.st14{fill:#3764AD;}
	.st15{fill:#6B96CF;}
	.st16{fill:#EB781A;}
	.st17{fill:#6A95CE;}
	.st18{fill:#020203;}
	.st19{fill:#B27946;}
	.st20{fill:#FFFFFF;}
	.st21{fill:#FDD870;}
	.st22{fill:#F5E0CD;}
	.st23{fill:#EE7486;}
	.st24{fill:#DFB38B;}
	.st25{fill:#E6E9ED;}
	.st26{fill:#F4DFCC;}
	.st27{fill:#ED7386;}
	.st28{fill:#F3DECC;}
	.st29{fill:#F3DECB;}
	.st30{fill:#020303;}
	.st31{fill:#FEFEFE;}
	.st32{fill:#F6AE95;}
	.st33{fill:#EF8879;}
	.st34{fill:#EF8A7A;}
	.st35{fill:#EE8879;}
	.st36{fill:#EF897A;}
	.st37{fill:#FDFCFD;}
	.st38{fill:#FCFCFD;}
	.st39{fill:#57BEE3;}
	.st40{fill:#2A8179;}
	.st41{fill:#729B2E;}
	.st42{fill:#FAC8A4;}
	.st43{fill:#B6C1CB;}
	.st44{fill:#5EB887;}
	.st45{fill:#E5ECF2;}
	.st46{fill:#F3AD44;}
	.st47{fill:#020304;}
</style>
<g>
	<path class="st0" d="M293.46,252.43c-0.81,5.54-1.45,11.11-2.51,16.6c-0.63,3.31-2.44,6.29-6.53,5.19
		c-3.91-1.05-3.9-4.02-3.18-7.58c3.75-18.61-3.7-31.5-21.97-37.68c-3.96-1.34-5.42-3.22-5.41-7.22
		c0.08-50.94,0.08-101.88-0.01-152.82c-0.01-2.97,0.91-5.2,2.92-7.2c3.67,0,7.33,0,11,0c4.83,9.2,7.51,19.2,11,28.89
		c1.3,3.59,3.37,5.42,7.07,6.11c4.47,0.83,9.2,1.34,13.24,3.2c7.49,3.44,13.12,2.3,18.71-3.75c4.27-4.63,9.78-8.14,14.5-12.39
		c3.17-2.85,6.03-3.31,9.78-0.98c5.98,3.72,12.21,7.07,18.37,10.5c3.57,1.99,5.65,4.49,4.02,8.81c-0.46,1.23-0.31,2.67-0.54,4
		c-1.45,8.4-6.4,17.56-3.48,24.97c2.89,7.34,11.46,12.47,17.35,18.73c1.79,1.91,3.34,2.32,5.96,1.79
		c8.71-1.76,17.52-3.04,26.26-4.67c4.19-0.78,6.91,0.48,8.92,4.28c3.17,5.98,6.52,11.89,10.23,17.56c2.56,3.92,2.11,6.9-0.91,10.24
		c-5.47,6.06-10.52,12.5-16.09,18.47c-2.7,2.9-3.16,5.41-1.68,9.05c1.77,4.35,3.66,8.99,3.85,13.57
		c0.34,8.32,5.14,11.46,12.32,13.44c6.35,1.75,12.45,4.36,18.72,6.42c3.81,1.25,5.42,3.57,5.31,7.56
		c-0.19,6.76-0.32,13.55,0.04,20.3c0.25,4.87-1.67,7.51-6.26,9.01c-7.79,2.55-15.39,5.64-23.23,8.02c-1.75,0.53-3.01,1.26-3.92,2.26
		c-1.48,1.63-1.78,3.56-1.89,4.17c-1.58,9.34-11.08,20.28-6.77,28.23c2.03,3.74,4.81,2.56,11.94,9.69c0.75,0.75,3.67,3.53,5.62,6.58
		c1.26,1.97,3.9,6.82,3.67,14.71c-3.13,5.99-6.62,9.48-8.82,8.82c-0.5-0.15-1.61-0.71-2.28-3.63c-1.64-0.99-3.28-1.97-4.92-2.96
		c1.66-2.65,3.31-5.3,4.97-7.95c-0.82-3.45-2.56-8.1-6.67-11.42c-3.7-2.98-6.09-2.19-9.48-5.54c-4.86-4.79-5.42-11.17-5.52-12.64
		c-0.14-2.24,0.56-4.85,1.95-10.07c2.32-8.7,3.7-10.32,5.57-18.38c0.99-4.24,0.71-4.22,1.32-5.36c2.67-4.96,8.78-7.15,15.51-9
		c3.3-0.91,6.46-2.4,9.76-3.24c6.6-1.69,8.32-5.82,8.03-12.11c-0.22-4.77-1.95-7.45-6.45-9.1c-6.22-2.29-12.64-4.05-18.76-6.6
		c-4.55-1.89-8.71-4.24-9.33-9.81c-1.28-11.6-7.01-22.11-8.49-33.66c-0.04-1.93,0.98-3.2,2.6-4.11
		c6.67-5.19,11.72-11.89,16.68-18.51c3.72-4.97-2.1-8.51-3.68-12.65c-1.31-3.44-4.29-3.41-7.45-2.91
		c-9.65,1.54-19.16,4.05-29.01,4.36c-1.85-0.02-3.03-0.99-3.8-2.56c-4.46-6.79-9.16-13.36-16.63-17.34
		c-3.23-2.35-7.13-4.08-8.17-8.48c0.69-8.81,2.57-17.44,4.52-26.01c1.32-5.81-0.96-8.68-5.68-11.41c-4.78-2.77-8.84-3.29-13.04,0.68
		c-4.3,4.06-9.14,7.53-13.46,11.57c-4.42,4.14-9.44,5.26-15.2,3.18c-7.97-2.89-16.12-5.17-24.52-6.42
		c-5.06-0.75-8.36-3.35-9.87-8.18c-1.41-4.51-3.92-8.67-4.4-12.73c-0.1-0.83-0.03,15.93,0.34,26.72c0.03,0.96,0.54,16.68,0.24,31.04
		c-0.47,22.03-0.17,44.07-0.13,66.1c0.01,5.27,1.48,8.95,6.62,11.29c8.66,3.94,14.77,13.11,15.77,14.55
		C290.02,238.96,292.82,244.19,293.46,252.43z"/>
	<path class="st1" d="M134.73,311.15c24.93-14.07,49.83-28.19,74.82-42.15c3.01-1.68,2.31-3.68,2.05-6.2
		c-2.03-20,10.36-37.95,29.59-43.22c3.55-0.97,7.16-1.65,8.5,2.73c1.35,4.43-2.09,5.58-5.6,6.77
		c-17.33,5.85-25.35,19.38-21.54,36.77c0.99,4.49,0.1,7.12-3.94,9.41c-44.48,25.29-88.9,50.67-133.32,76.06
		c-3.02,1.72-6.23,2.96-8.41-0.53c-2.21-3.54-6.55-7.06-2.3-11.98c5.93-6.87,11.72-13.85,17.76-20.62c2.05-2.3,2.6-4.28,1.46-7.27
		c-1.68-4.39-3.55-8.98-3.82-13.57c-0.55-9.28-6.19-12.51-14.18-15.03c-7.7-2.43-15.96-3.93-22.52-9.23c0-9.94,0-19.87,0-29.81
		c8.34-5.84,18.31-7.78,27.72-10.94c5.03-1.69,7.24-4.54,7.97-9.36c0.47-3.09,0.89-6.38,2.27-9.11c4.6-9.14,2.57-16.39-5.05-22.99
		c-3.74-3.24-6.47-7.59-9.93-11.19c-3.44-3.57-4.32-6.86-1.29-11.32c3.68-5.4,6.91-11.15,9.9-16.96c2.13-4.14,5.05-5.29,9.47-4.45
		c8.29,1.57,16.68,2.63,24.91,4.45c3.44,0.76,5.35,0.12,7.61-2.44c4.2-4.75,8.54-9.53,13.51-13.43c3.97-3.12,4.2-6.43,3.38-10.63
		c-1.47-7.5-2.5-15.11-4.3-22.53c-1.04-4.29,0.04-6.88,3.78-8.94c6.38-3.52,12.73-7.08,18.95-10.85c3.51-2.13,6.22-1.62,9.2,1
		c6.32,5.55,12.91,10.8,19.25,16.33c2.67,2.33,5.1,3.07,8.65,1.68c4.42-1.73,9.11-3.38,13.79-3.78c9.06-0.76,13.27-5.46,13.75-14.15
		c-2.67-1.61-5.36,1.39-7.6,0.83c6.74-6.88,13.66-13.96,21.37-21.84c1.17,10.62,2.26,20.57,3.4,30.9c-3.41-0.92-3.56-5.03-6.76-6.1
		c-0.33,0.5-0.88,0.97-0.97,1.51c-1.89,11.73-8.55,17.82-20.86,18.53c-4.88,0.28-9.83,2.13-14.4,4.06
		c-6.01,2.54-10.81,2.03-15.38-2.81c-2.94-3.12-6.55-5.62-9.83-8.43c-9.9-8.48-9.83-8.38-21.12-2.06c-3.77,2.11-5.38,3.88-4.37,8.87
		c1.97,9.65,4.78,19.26,4.72,29.25c-0.08,0.33-0.16,0.66-0.23,0.99c-7.53,8.13-16.17,15.18-23.45,23.59c-3.12,3.6-7.97,3.1-12.3,2.3
		c-6.3-1.17-12.67-2-18.9-3.45c-5.16-1.2-7.51,1.43-9.61,5.41c-2.14,4.04-4.89,7.53-0.71,12.18c4.85,5.39,9.64,10.86,14.2,16.51
		c2.87,3.56,3.62,7.22,2.16,11.36c-3.1,8.75-5.56,17.67-7.19,26.8c-0.92,5.15-4.8,7.44-9.15,9.21c-6.35,2.59-12.97,4.43-19.41,6.78
		c-5.22,1.9-5.84,5.49-5.84,10.13c0,4.63,0.58,8.27,5.84,10.11c6.26,2.18,12.58,4.19,18.79,6.51c5.79,2.16,9.53,5.63,10.39,12.14
		c0.89,6.7,2.43,13.4,5.21,19.6c3.41,7.6,2.24,13.93-3.75,19.64c-1.47,1.4-2.65,3.1-4.62,5.02
		C109.85,324.73,121.17,315.85,134.73,311.15z"/>
	<path class="st2" d="M236.15,454.66c-4.77-9.23-7.55-19.2-10.97-28.92c-1.29-3.66-3.47-5.44-7.13-6.06
		c-3.14-0.53-6.61-0.59-9.32-2.01c-10.57-5.55-18.08-1.96-26.4,5.52c-15.1,13.57-15.6,13.03-33.6,2.9
		c-10.73-6.04-10.73-6.04-8.16-17.92c0.19-0.88,0.24-1.83,0.62-2.63c9.1-19.02-4.67-29.23-16.24-39.94
		c-3.54-3.28-8.05,0.37-12.34,0.67c-4.8,0.6-10.74,0.84-17.43-0.01c-2.73-0.34-5.25-0.83-7.55-1.38
		c-7.01-8.23-7.77-10.95-7.03-11.85c0.29-0.35,0.74-0.35,2.46-0.96c1.81-0.64,3.21-1.33,4.08-1.79c1.18-0.67,2.36-1.35,3.54-2.02
		c0.15,1.11,0.89,5.42,4.67,8.31c4.07,3.12,10.04,3.34,15.05,0.51c14.39-7.84,20.86,3.63,30.97,10.32
		c17.88,11.83,12.14,26.32,9.12,40.91c-1.2,5.8,0.51,7.94,5.12,10.39c10.53,5.62,10.94,6.34,19.34-2.15
		c10.57-10.69,21.39-17.07,36.26-8.34c1.3,0.77,3.09,1.06,4.64,1.04c12.92-0.16,18.25,7.56,20.53,18.73c0.49,2.4,2.04,4.6,2.44,7.01
		c1.35,8.08,5.71,10.67,14.1,10.31c6.55-0.29,9.8-1.93,11.47-8.24c1.78-6.72,4.78-13.11,6.99-19.72c1.19-3.57,3.04-5.6,7.1-6.18
		c9.28-1.33,18.35-3.73,27.08-7.09c4.21-1.62,7.36-0.95,10.62,1.92c5.8,5.12,11.95,9.86,17.66,15.06c3.03,2.76,5.39,2.91,8.98,0.82
		c11.71-6.82,12.49-6.84,8.96-19.94c-3.69-13.72-3.48-25.25,10.45-33.48c3.57-2.11,6.34-5.91,8.81-9.39
		c3.46-4.87,7.78-5.51,13.16-4.31c5.54,1.24,11.17,2.1,17.17,2.29c-11.16-6.38-22.33-12.76-33.49-19.13
		c-27.69-15.81-55.44-31.54-83.02-47.53c-3.7-2.15-6.07-2.15-9.62,0.34c-15.87,11.14-37.38,9.59-51.09-3.33
		c-2.7-2.54-5.94-5.51-2.52-9.14c3.36-3.57,6.43-0.85,9.35,1.73c12.91,11.43,29.23,11.49,42.01-0.22c4.03-3.7,7.18-3.45,11.5-0.97
		c43.85,25.17,87.77,50.23,131.69,75.29c3.14,1.79,6.22,3.65,4.28,7.83c-1.85,3.99-3.31,8.75-9.6,7.61
		c-8.98-1.62-18.04-2.88-26.97-4.73c-2.97-0.62-4.55,0.07-6.46,2.15c-4.29,4.69-8.52,9.56-13.5,13.47
		c-4.36,3.43-4.68,7.14-3.71,11.84c1.54,7.49,2.64,15.08,4.34,22.53c0.87,3.78-0.34,6.05-3.5,7.84
		c-6.54,3.71-13.09,7.39-19.54,11.24c-3.22,1.92-5.82,1.66-8.65-0.81c-6.34-5.54-12.93-10.8-19.27-16.33
		c-2.83-2.47-5.41-3.41-9.26-1.88c-4.84,1.92-9.98,3.87-15.1,4.16c-7.36,0.43-9.96,4.48-11.92,10.52
		c-2.77,8.52-5.33,17.14-9.58,25.12C257.23,454.66,246.69,454.66,236.15,454.66z"/>
</g>
<g>
	<path class="st3" d="M322.8,214.36c-4.2-4.95-8.63-9.67-12.46-15.02c-4.67-6.5-5.77-14.12-3.29-22.16
		c2.52-8.18,7.61-13.09,14.82-14.51c6.23-1.23,11.68,1.03,16.25,6.22c0.91,1.03,1.82,2.07,2.66,3.18c0.57,0.76,0.94,0.9,1.58,0.05
		c1.04-1.38,2.15-2.71,3.33-3.92c4.97-5.13,10.67-6.94,17.13-5.16c2.37,1.97,3.89,4.75,4.96,7.84c3.04,8.82,1.88,16.92-3.17,24.28
		c-0.17,0.25-0.36,0.49-0.63,0.59c-0.57,0.1-0.96-0.33-1.37-0.68c-6.16-5.25-12.31-10.52-18.47-15.75
		c-0.11-0.09-0.22-0.19-0.33-0.28c-1.85-1.53-2.59-1.56-4.41-0.02c-3.3,2.78-6.56,5.62-9.86,8.41c-3.85,3.26-7.66,6.57-11.51,9.82
		c-0.6,0.51-1.09,1.09-1.37,1.9c-0.33,1.39-0.03,2.56,0.98,3.38c1.01,0.83,2.03,0.65,3.02-0.14c0.51-0.4,0.97-0.87,1.49-1.23
		c0.32-0.22,0.68-0.49,0.88,0.2c0.22,3.03,0.05,6.06,0.1,9.09c0.02,0.89,0.02,1.78-0.01,2.67
		C323.1,213.56,323.1,214.01,322.8,214.36z"/>
	<path class="st4" d="M325.27,256.64c-5.78,0-11.57-0.02-17.35,0.01c-0.85,0.01-1.09-0.28-1.09-1.29c0-2.1,0.12-4.19-0.12-6.3
		c-0.25-2.22-1.07-4.05-2.28-5.69c-3.29-4.47-6.56-8.94-9.85-13.41c-1.31-1.78-1.94-3.92-1.95-6.22
		c-0.04-14.05-0.03-28.1-0.01-42.15c0-3.34,2.03-5.85,4.65-5.87c2.55-0.02,4.68,2.72,4.69,6.13c0.02,7.81,0.03,15.63-0.01,23.44
		c-0.01,1.8,0.49,3.17,1.55,4.41c6.28,7.42,12.53,14.87,18.78,22.31c0.19,0.23,0.36,0.48,0.54,0.72c2.65,3.81,3.45,8.28,3.36,13.1
		c-0.06,3.02-0.01,6.05-0.01,9.07c0,0.56,0.05,1.14-0.2,1.65C325.74,256.82,325.51,256.84,325.27,256.64z"/>
	<path class="st4" d="M355.29,256.64c0-4.32-0.32-8.66,0.19-12.96c0.47-3.99,1.95-7.48,4.33-10.34c6.49-7.78,13-15.55,19.56-23.26
		c1.31-1.54,1.88-3.17,1.85-5.37c-0.08-7.57-0.03-15.14-0.03-22.71c0-1.8,0.41-3.41,1.55-4.7c1.61-1.83,3.64-2.09,5.57-0.65
		c0.42,0.69,0.5,1.49,0.5,2.31c0,13.76,0.01,27.51-0.01,41.27c0,2.94-0.84,5.53-2.51,7.75c-3.11,4.13-6.1,8.38-9.23,12.47
		c-1.7,2.22-2.5,4.77-2.54,7.72c-0.03,2.31,0.01,4.61-0.01,6.92c0,0.59,0.09,1.24-0.39,1.68c-0.52,0.24-1.07,0.21-1.61,0.21
		c-5.29,0.01-10.58,0.01-15.88,0C356.18,257,355.69,257.06,355.29,256.64z"/>
	<path class="st5" d="M322.8,214.36c0.01-4.46,0.02-8.91,0.03-13.37c0.06-0.61,0.49-0.85,0.84-1.15
		c5.69-4.86,11.39-9.72,17.07-14.59c0.58-0.5,1.07-0.51,1.66-0.01c5.11,4.37,10.23,8.73,15.34,13.1c0.36,0.3,0.73,0.62,0.81,1.2
		c0.12,3.89,0.04,7.77,0.05,11.66c0,0.79-0.32,1.38-0.77,1.91c-2.41,2.86-4.81,5.73-7.22,8.58c-0.28,0.33-0.57,0.85-1.01,0.64
		c-0.45-0.22-0.33-0.84-0.33-1.3c-0.01-5.55,0-11.09-0.01-16.64c0-0.56,0.1-1.15-0.29-1.61c-0.41-0.48-0.94-0.43-1.44-0.44
		c-3.97-0.01-7.94-0.02-11.91,0c-1.31,0.01-1.47,0.19-1.47,1.75c-0.01,7.15,0,14.3-0.01,21.45c0,0.66,0.14,1.39-0.37,1.93
		C330.07,223.14,326.36,218.83,322.8,214.36z"/>
	<path class="st6" d="M325.27,256.64c0.2,0,0.41-0.01,0.61-0.01c0.66-0.52,1.31-0.54,1.96,0.02c0.84,0.34,1.67-0.05,2.52-0.01
		c1.81,0.09,2.62,0.99,2.63,3.12c0.01,4.57,0.01,9.14,0,13.72c0,2.16-0.78,3.06-2.62,3.06c-8.7,0-17.41,0-26.11,0
		c-1.81,0-2.5-0.83-2.5-3.01c0-4.61,0-9.22,0.01-13.84c0-2.04,0.69-2.88,2.4-2.88c6.63-0.02,13.26-0.02,19.89-0.03
		C324.47,256.77,324.88,256.88,325.27,256.64z"/>
	<path class="st7" d="M363.81,195.65c2.58-3.08,4.17-6.79,4.91-11.02c1.05-6,0.11-11.57-2.57-16.76c-0.93-1.8-2.22-3.23-3.34-4.83
		c4.62,1.21,8.24,4.24,10.98,8.76c5.37,8.85,4.57,21.06-1.87,28.87c-3.69,4.48-7.44,8.88-11.17,13.31
		c-0.12,0.14-0.26,0.24-0.39,0.36c-0.22-0.23-0.29-0.55-0.29-0.87c-0.01-4.03-0.13-8.06,0.06-12.08c0.17-0.66,0.52-0.48,0.87-0.24
		c0.5,0.34,0.94,0.78,1.41,1.17c1,0.82,2.04,1.09,3.11,0.23c1.02-0.81,1.3-1.99,1.01-3.38c-0.27-1.2-1.17-1.71-1.9-2.4
		C364.3,196.45,363.79,196.32,363.81,195.65z"/>
	<path class="st8" d="M333.76,227.46c0.01-7.53,0.02-15.06,0.04-22.59c0.01-3.19-0.38-2.89,2.46-2.89c3.95-0.01,7.89,0,11.84,0
		c0.51,0,1.05-0.09,1.25,0.7c0.14,0.88,0.06,1.77,0.06,2.65c0.03,5.68-0.05,11.37,0.04,17.05c0.08,0.56-0.24,0.89-0.53,1.23
		c-1.79,2.14-3.55,4.33-5.4,6.4c-1.48,1.65-3.21,2.5-5.3,1.88c-0.62-0.18-1.06-0.69-1.61-1.01
		C335.68,229.73,334.72,228.6,333.76,227.46z"/>
	<path class="st9" d="M379.8,256.82c1.14,0.42,1.58,1.06,1.58,2.42c0.01,4.94,0.01,9.87,0,14.81c0,1.54-0.8,2.48-2.1,2.48
		c-8.97,0.01-17.95,0.01-26.92,0c-1.3,0-2.17-1.01-2.21-2.54c-0.02-0.77,0.02-1.54,0.03-2.3c0.09-0.11,0.2-0.2,0.33-0.26
		c0.53-0.19,1.08-0.13,1.62-0.13c7.13-0.01,14.26,0,21.39,0c0.34,0,0.68,0.01,1.02,0c1.74-0.04,2.42-0.82,2.43-2.87
		c0.02-3.27,0-6.55,0.01-9.82c0-0.6-0.07-1.22,0.27-1.75C378.1,256.65,378.95,256.71,379.8,256.82z"/>
	<path class="st10" d="M379.8,256.82c-0.83,0.02-1.66,0.04-2.49,0.06c-0.81,0.62-1.72,0.3-2.59,0.35c-1.07,0.07-1.17,0.13-1.18,1.39
		c-0.02,1.66,0.01,3.32-0.01,4.98c-0.03,2.42-0.97,3.57-3.02,3.59c-4.38,0.04-8.77,0.01-13.15,0.01c-1.84,0-3.67-0.02-5.51,0.01
		c-1.07,0.01-1.12,0.14-1.19,1.4c-0.05,1.03,0.24,2.11-0.32,3.07c-0.06,0-0.11,0.01-0.17,0.02c0-4.11-0.02-8.22,0.02-12.34
		c0.02-1.68,0.82-2.51,2.27-2.57c0.94-0.05,1.89,0.16,2.83-0.13c6.32,0.01,12.64,0.12,18.95-0.06c0.72-0.47,1.45-0.5,2.17,0.01
		C377.54,256.79,378.69,256.33,379.8,256.82z"/>
	<path class="st11" d="M376.41,256.6c-0.72,0-1.45-0.01-2.17-0.01c0-2.95-0.06-5.91,0.01-8.86c0.06-2.69,0.8-5.11,2.33-7.16
		c3.15-4.21,6.27-8.46,9.42-12.66c1.73-2.3,2.52-4.98,2.52-8.05c-0.01-11.65,0.01-23.31-0.02-34.96c-0.01-2.74,0.18-5.49-0.19-8.22
		c1.61,1.04,2.22,2.79,2.23,4.83c0.03,6.96,0.01,13.92,0.01,20.88c0,6.88-0.03,13.76,0.01,20.64c0.02,3.12-0.93,5.69-2.66,7.99
		c-3.33,4.42-6.61,8.91-9.85,13.42c-1.03,1.43-1.59,3.19-1.6,5.12C376.44,251.9,376.43,254.25,376.41,256.6z"/>
	<path class="st12" d="M349.31,222.85c0.01-6.28,0.01-12.56,0.02-18.85c0-0.44,0.02-0.88,0.03-1.33c0.29,0.38,0.17,0.85,0.17,1.28
		c0.01,5.66,0.01,11.32,0.01,16.98c0,0.4,0,0.79,0,1.19c0.4,0.07,0.52-0.28,0.7-0.49c2.5-2.96,4.99-5.95,7.5-8.9
		c0.42-0.5,0.59-1.01,0.59-1.71c-0.02-3.92-0.01-7.84-0.01-11.76c0.94,0.16,1.65,0.68,2.04,1.74c0,4.45,0,8.89-0.01,13.34
		c-0.9,1.38-2.01,2.51-3.04,3.73c-2.63,3.15-5.29,6.27-7.94,9.4C348.74,225.94,348.9,224.4,349.31,222.85z"/>
	<path class="st13" d="M349.31,222.85c0.02,1.54,0.05,3.08,0.07,4.62c-1.48,1.77-2.9,3.61-4.44,5.3c-1.84,2.01-4.77,2-6.67,0.07
		c-0.59-0.6-1.09-1.31-1.63-1.97c0.66,0.02,1.16,0.58,1.81,0.75c2,0.52,3.6-0.34,4.98-1.9
		C345.42,227.47,347.35,225.14,349.31,222.85z"/>
	<path class="st11" d="M327.85,256.65c-0.65-0.01-1.31-0.01-1.96-0.02c-0.01-3.79-0.07-7.58-0.02-11.37
		c0.06-4.31-0.82-8.27-2.87-11.84c-0.12-0.21-0.2-0.42-0.2-0.67c2.78,2.98,4.39,6.72,4.88,11.1
		C328.16,248.1,327.85,252.38,327.85,256.65z"/>
	<path class="st6" d="M363.81,195.65c0.64,0.58,1.28,1.15,1.91,1.73c0.46,0.42,0.85,0.9,0.97,1.61c-0.31,1.45-1.63,2.39-2.97,2.13
		c-0.69-0.14-1.27-0.53-1.83-1.01c-6.41-5.53-12.88-10.97-19.28-16.51c-0.76-0.66-1.32-0.65-2.08,0.01
		c-6.39,5.56-12.86,11-19.28,16.51c-1.7,1.46-3.19,1.43-4.39-0.1c-0.22-0.28-0.53-0.54-0.4-1.02c0.15-0.75,0.57-1.25,1.08-1.69
		c7.42-6.33,14.83-12.66,22.25-18.98c1.29-1.09,2.4-1.03,3.82,0.19c6.54,5.57,13.07,11.14,19.6,16.71
		C363.39,195.38,363.6,195.51,363.81,195.65z"/>
	<path class="st14" d="M316.45,198.99c1.45,2.27,2.78,2.52,4.67,0.89c6.45-5.53,12.9-11.05,19.33-16.61
		c0.81-0.7,1.42-0.71,2.23-0.01c6.43,5.56,12.89,11.08,19.33,16.61c1.87,1.61,3.25,1.35,4.67-0.89c0.41,1.43,0.16,2.71-0.7,3.59
		c-0.92,0.94-2.16,1.13-3.21,0.38c-0.84-0.6-1.62-1.31-2.43-1.97c-0.64-0.65-1.3-1.26-2.04-1.74c-5.08-4.36-10.16-8.73-15.24-13.09
		c-1.48-1.27-1.49-1.27-2.94-0.03c-5.57,4.74-11.13,9.48-16.69,14.22c-0.22,0.19-0.41,0.41-0.62,0.62c-0.8,0.65-1.58,1.34-2.41,1.93
		c-1.1,0.79-2.32,0.62-3.26-0.36C316.29,201.67,316.05,200.42,316.45,198.99z"/>
	<path class="st11" d="M304.17,212.88c0.17,0,0.34-0.01,0.51,0c0.4,0.03,0.92,0.05,1.04,0.51c0.11,0.4-0.41,0.54-0.64,0.82
		c-1.64,1.95-2.31,5.21-0.13,7.9c3.31,4.07,6.71,8.03,10.09,12.02c0.4,0.48,0.74,0.98,0.73,1.66c-0.02,1.25-1.09,2-2.05,1.43
		c-0.3-0.17-0.56-0.46-0.79-0.74c-4.02-4.77-8.03-9.55-12.04-14.33c-1.37-1.63-1.79-4-0.98-6.03
		C300.74,214.02,302.17,212.88,304.17,212.88z"/>
	<path class="st11" d="M378.97,212.85c2.04,0.07,3.43,1.2,4.26,3.26c0.77,1.92,0.38,4.43-0.89,5.95
		c-4.08,4.88-8.16,9.74-12.26,14.59c-0.81,0.96-1.62,1.06-2.23,0.34c-0.71-0.84-0.63-1.78,0.24-2.83c3.31-3.95,6.59-7.95,9.96-11.83
		c2.03-2.34,1.95-6.4-0.32-8.37c-0.15-0.13-0.35-0.37-0.35-0.55c0-0.37,0.34-0.34,0.55-0.4C378.3,212.9,378.68,212.89,378.97,212.85
		z"/>
	<path class="st15" d="M341.59,205.29c1.39,0,2.79,0.01,4.18,0c0.76-0.01,1.12,0.41,1.12,1.32c-0.01,1.9-0.01,3.8,0,5.7
		c0.01,0.91-0.33,1.35-1.1,1.34c-2.82,0-5.64,0-8.46,0c-0.78,0-1.08-0.48-1.07-1.38c0.02-1.86,0.02-3.72,0-5.58
		c-0.01-1.06,0.41-1.43,1.25-1.41C338.87,205.32,340.23,205.29,341.59,205.29z"/>
	<path class="st16" d="M338.23,218.01c-0.11,0.68-0.44,1.12-1.03,1.06c-0.58-0.06-0.93-0.54-0.87-1.23
		c0.05-0.61,0.42-1.04,0.96-1.01C337.86,216.87,338.18,217.32,338.23,218.01z"/>
	<path class="st6" d="M350.35,271.67c0-1.21,0.05-2.43-0.01-3.63c-0.05-0.95,0.2-1.25,1.02-1.24c4.92,0.04,9.84,0.02,14.76,0.02
		c1.53,0,3.05,0.01,4.58,0c1.67-0.01,2.51-1.02,2.51-2.96c0-1.9,0.04-3.8-0.02-5.69c-0.03-0.97,0.17-1.39,1.06-1.32
		c1.01,0.09,2.03,0.03,3.05,0.03c0,4.01,0,8.02-0.01,12.02c0,1.74-0.88,2.78-2.36,2.78C366.74,271.68,358.55,271.67,350.35,271.67z"
		/>
	<path class="st17" d="M359.33,258.8c2.04,0,4.07,0,6.11,0c0.54,0,1.06,0.01,1.03,0.91c-0.03,0.84-0.54,0.79-1.02,0.79
		c-4.14,0-8.28,0-12.43,0c-0.57,0-1.21-0.04-1.18-0.91c0.03-0.76,0.63-0.8,1.17-0.8C355.12,258.8,357.23,258.8,359.33,258.8z"/>
</g>
<g>
	<g>
		<path class="st18" d="M251.55,302.66c2.48,0,4.97,0,7.45,0c0.3,0.34,0.19,0.74,0.2,1.11c0.02,0.49,0.04,0.98,0.64,1.19
			c0.55,0.19,0.95-0.08,1.33-0.4c1.07-0.91,1.08-0.91,2.11,0.03c1.25,1.14,2.5,2.28,3.74,3.42c0.69,0.64,0.69,0.75,0.02,1.38
			c-0.03,0.03-0.07,0.06-0.1,0.1c-0.43,0.39-0.91,0.77-0.61,1.4c0.31,0.63,0.95,0.56,1.55,0.56c5.07,0,10.13,0.05,15.2-0.02
			c2.31-0.03,3.27,1.46,3.26,2.95c0,0.52,0.02,1.05-0.01,1.57c-0.11,1.67-1.25,2.66-3.08,2.69c-0.5,0.01-0.99-0.01-1.49,0
			c-0.62,0.02-0.67,0.08-0.4,0.59c0.59,1.1,1.19,2.2,1.79,3.29c0.9,1.64,1.74,3.32,2.72,4.92c0.54,0.89,0.43,1.75,0.23,2.64
			c-0.85,3.84-4.43,6.52-8.71,6.53c-1.26,0-2.53,0.07-3.79-0.12c-4.12-0.64-7.19-3.72-7.47-7.53c-0.04-0.52,0.11-0.98,0.36-1.44
			c1.51-2.74,3-5.48,4.5-8.22c0.36-0.67,0.36-0.67-0.47-0.67c-1.02,0-2.04,0-3.05,0c-0.47,0-0.91,0.07-1.12,0.51
			c-0.22,0.45-0.07,0.84,0.31,1.17c1.25,1.1,1.15,1.06-0.06,2.17c-1.18,1.08-2.35,2.16-3.53,3.22c-0.71,0.64-0.95,0.63-1.67,0.01
			c-0.16-0.14-0.31-0.29-0.49-0.42c-0.71-0.52-1.49-0.25-1.65,0.58c-0.04,0.2-0.03,0.41-0.03,0.61c0,3.54,0,7.08,0,10.62
			c0,0.87,0.11,0.92,0.95,0.49c0.75-0.38,1.34-0.93,1.95-1.47c0.65-0.58,0.88-0.56,1.39,0.14c1.92,2.62,3.16,5.44,3.02,8.67
			c-0.06,1.35,0.06,2.7-0.11,4.05c0.2-1.85,0.96-3.52,2.12-5.02c2.92-3.8,6.97-5.73,12.03-5.51c4.74,0.21,8.45,2.28,11.03,5.95
			c1.09,1.55,1.72,3.25,1.84,5.09c0,2.54,0,5.09,0,7.63c-0.11,1.22-0.33,2.41-0.87,3.55c-0.76,1.61-1.83,3.01-3.15,4.26
			c-0.34,0.32-0.41,0.61-0.31,1.03c0.46,1.89,0.66,3.81,0.96,5.72c0.11,0.72,0.04,0.76-0.77,0.76c-22.68,0-45.35,0-68.03,0
			c-0.8,0-0.87-0.05-0.77-0.77c0.25-1.76,0.48-3.52,0.83-5.26c0.44-2.18,1.74-3.83,3.87-4.91c0.34-0.17,0.61-0.38,0.74-0.73
			c0.13-0.34,0.1-0.62-0.25-0.83c-1.08-0.68-1.96-1.53-2.63-2.56c-0.21-0.33-0.52-0.46-0.93-0.46c-0.55-0.01-1.09,0.01-1.63-0.08
			c-1.95-0.31-2.93-1.14-3.38-2.86c0-0.5,0-1,0-1.5c0.16-1.01,0.73-1.77,1.7-2.27c0.49-0.25,0.48-0.64,0.49-1.05
			c0.06-1.81,0.4-3.55,1.34-5.19c2.9-5.05,10.08-7.37,15.92-4.01c3.54,2.03,5.38,5,5.36,8.87c0,0.18-0.01,0.36,0.01,0.54
			c0.04,0.52,0.53,0.96,1.06,0.94c0.55-0.02,1.04-0.43,1.05-0.95c0.03-1.25,0.09-2.5-0.01-3.75c-0.27-3.53,2.76-6.63,6.37-7.12
			c0.95-0.13,0.95-0.17,0.95-1.05c0-3.63,0-7.27,0-10.9c0-0.23,0.01-0.45-0.03-0.68c-0.06-0.39-0.26-0.69-0.67-0.84
			c-0.4-0.15-0.72,0.01-1.02,0.25c-0.07,0.06,0.01-0.02-0.05,0.05c-1.35,1.37-1.54,0.82-2.57-0.11c-1.18-1.07-2.36-2.14-3.53-3.23
			c-0.61-0.56-0.59-0.71,0-1.29c0.19-0.18,0.39-0.35,0.57-0.54c0.28-0.3,0.36-0.65,0.19-1.02c-0.16-0.35-0.48-0.52-0.89-0.52
			c-1.34-0.03-2.67,0-4.01-0.02c-0.08,0.27,0.1,0.43,0.19,0.6c1.49,2.75,2.98,5.49,4.5,8.22c0.37,0.66,0.45,1.31,0.32,2.04
			c-0.82,4.4-4.34,7.13-9.23,7.13c-1.11,0-2.23,0.06-3.34-0.11c-3.67-0.57-6.42-2.89-7.27-6.21c-0.28-1.1-0.26-2.13,0.37-3.21
			c1.49-2.54,2.85-5.14,4.26-7.73c0.36-0.66,0.32-0.71-0.48-0.72c-0.5-0.01-0.99,0.01-1.49-0.01c-1.54-0.05-2.6-0.84-2.86-2.22
			c-0.17-0.9-0.17-1.82-0.01-2.71c0.27-1.49,1.28-2.24,2.95-2.25c5.07-0.01,10.13,0,15.2,0c0.3,0,0.6,0.01,0.89-0.02
			c0.4-0.04,0.72-0.19,0.88-0.54c0.17-0.37,0.1-0.71-0.19-1.01c-0.23-0.24-0.48-0.46-0.73-0.68c-0.33-0.31-0.39-0.62-0.03-0.95
			c1.52-1.41,3.04-2.81,4.59-4.19c0.33-0.29,0.65-0.26,0.98,0.01c0.27,0.23,0.52,0.49,0.82,0.69c0.77,0.51,1.55,0.19,1.67-0.67
			C251.41,303.63,251.19,303.11,251.55,302.66z"/>
		<path class="st19" d="M290.93,353.21c-0.02,2.17,0.15,4.13-0.63,6.01c-0.59,1.42-1.42,2.68-2.57,3.79c-0.26,0.25-0.42,0.28-0.69,0
			c-0.58-0.6-1.31-1.04-2.08-1.42c-0.84-0.42-0.89-1.32-0.14-1.83c2.41-1.63,3.68-3.8,3.69-6.56c0-0.73,0-1.45,0-2.18
			c0-2.08-1.38-3.44-3.64-3.66c-1.23-0.12-2.47-0.23-3.68-0.42c-1.64-0.27-2.87-1.11-3.56-2.51c-0.22-0.46-0.46-0.46-0.89-0.32
			c-1.77,0.54-1.79,0.54-0.89,2.08c0.19,0.32,0.04,0.39-0.22,0.47c-0.58,0.18-1.17,0.36-1.75,0.54c-1.52,0.46-2.46,1.46-2.57,2.88
			c-0.14,1.69-0.24,3.4,0.21,5.08c0.52,1.95,1.7,3.5,3.51,4.65c0.69,0.43,0.64,1.38-0.12,1.75c-0.79,0.39-1.54,0.84-2.13,1.46
			c-0.3,0.32-0.48,0.24-0.76-0.02c-1.58-1.55-2.69-3.35-2.99-5.44c-0.38-2.66-0.37-5.35-0.03-8.01c0.53-4.17,4.39-7.76,8.88-8.44
			c5.99-0.9,11.4,2.37,12.81,7.73C291.08,350.35,290.87,351.9,290.93,353.21z"/>
		<path class="st20" d="M242.95,370.14c-0.65,0-1.3-0.05-1.93,0.02c-0.6,0.06-0.71-0.22-0.77-0.64c-0.14-0.96-0.28-1.93-0.46-2.89
			c-0.42-2.27-1.77-3.95-4-5c-0.65-0.3-0.62-0.87-0.82-1.35c-0.08-0.18,0.18-0.24,0.32-0.32c1.26-0.74,2.25-1.71,2.95-2.91
			c0.17-0.3,0.39-0.35,0.71-0.35c1.36,0.02,2.75,0.1,3.89-0.78c0.12-0.1,0.21-0.05,0.31,0.02c1.06,0.82,2.33,0.8,3.6,0.75
			c0.53-0.02,0.84,0.11,1.1,0.56c0.59,1.02,1.45,1.83,2.48,2.49c0.83,0.54,0.73,1.43-0.22,1.89c-2.1,1.01-3.42,2.59-3.91,4.7
			c-0.26,1.1-0.41,2.23-0.56,3.35c-0.05,0.4-0.23,0.46-0.61,0.45C244.34,370.12,243.65,370.14,242.95,370.14z"/>
		<path class="st21" d="M251.46,346.52c-2,0.61-4.13,0.91-4.76,3.12c0.03-1.68-0.2-3.34,0.07-4.98c0.35-2.12,2.35-3.7,4.69-3.72
			c1.56-0.02,3.13-0.02,4.69,0c2.08,0.02,4.03-0.39,5.78-1.44c0.36-0.22,0.48-0.13,0.64,0.18c0.68,1.37,1.13,2.79,1.25,4.3
			c0.16,1.94,0.03,3.88,0.08,5.81c-0.19,0.01-0.22-0.09-0.26-0.17c-0.59-1.43-1.8-2.09-3.4-2.27c-1.16-0.13-2.31-0.25-3.47-0.4
			c-1.75-0.22-3.03-1.08-3.78-2.54c-0.23-0.44-0.46-0.49-0.88-0.32c-0.07,0.03-0.13,0.06-0.21,0.08c-1.7,0.52-1.7,0.52-0.76,1.92
			C251.24,346.22,251.33,346.34,251.46,346.52z"/>
		<path class="st22" d="M224.53,352.17c0-0.57,0-1.13,0-1.7c0-0.57,0.29-0.94,0.88-1.12c1.05-0.32,2.11-0.64,3.16-0.97
			c0.2-0.06,0.38-0.11,0.57,0c1.63,0.91,3.49,0.94,5.3,1.15c2.18,0.25,2.46,0.26,2.37,2.39c-0.04,0.84,0.06,1.67-0.13,2.51
			c-0.62,2.72-3.37,4.68-6.36,4.5c-3.16-0.2-5.62-2.47-5.77-5.32c-0.02-0.48,0-0.95,0-1.43
			C224.54,352.17,224.54,352.17,224.53,352.17z"/>
		<path class="st22" d="M286.03,352.39c0.12,1.63-0.2,3.15-1.38,4.45c-1.66,1.84-4.33,2.54-6.77,1.76
			c-2.47-0.79-4.11-2.89-4.12-5.28c-0.01-0.91,0.02-1.81-0.01-2.72c-0.02-0.66,0.29-1.08,0.96-1.28c1.03-0.32,2.06-0.62,3.09-0.94
			c0.2-0.06,0.38-0.11,0.57,0c1.58,0.9,3.39,0.93,5.14,1.14c2.51,0.29,2.51,0.26,2.51,2.54
			C286.03,352.16,286.03,352.28,286.03,352.39z"/>
		<path class="st22" d="M249.15,352.17c0-0.57,0-1.13,0-1.7c-0.01-0.54,0.25-0.92,0.81-1.09c1.1-0.35,2.2-0.68,3.3-1.02
			c0.17-0.05,0.34-0.07,0.5,0.02c1.62,0.92,3.49,0.95,5.29,1.15c2.29,0.25,2.44,0.33,2.36,2.39c-0.03,0.88,0.08,1.76-0.15,2.64
			c-0.68,2.7-3.55,4.65-6.47,4.36c-3.2-0.31-5.56-2.6-5.63-5.45C249.15,353.03,249.16,352.6,249.15,352.17
			C249.15,352.17,249.15,352.17,249.15,352.17z"/>
		<path class="st20" d="M267.57,370.14c-0.67,0-1.34-0.02-2.01,0.01c-0.41,0.02-0.61-0.05-0.66-0.48c-0.13-1.06-0.32-2.11-0.52-3.15
			c-0.42-2.17-1.72-3.8-3.84-4.81c-0.67-0.32-0.74-0.83-0.94-1.34c-0.09-0.24,0.13-0.3,0.3-0.4c1.25-0.74,2.25-1.7,2.95-2.91
			c0.17-0.3,0.38-0.36,0.71-0.35c0.79,0.01,1.6,0.08,2.37-0.11c0.43-0.11,0.5,0,0.53,0.35c0.17,2.15,0.99,4.09,2.27,5.88
			c0.59,0.82,1.29,1.56,2.07,2.22c0.19,0.16,0.36,0.3,0.26,0.57c-0.47,1.25-0.53,2.57-0.73,3.87c-0.07,0.44-0.19,0.74-0.81,0.67
			C268.87,370.09,268.22,370.14,267.57,370.14z"/>
		<path class="st23" d="M262.08,322.97c-0.13-0.05-0.29-0.12-0.45-0.18c-1.92-0.72-4.09,0.09-4.85,1.87
			c-0.18,0.41-0.39,0.58-0.85,0.5c-0.1-0.02-0.2-0.01-0.3,0c-0.99,0.09-1.69,0-2.22-1.05c-0.72-1.44-2.84-1.97-4.44-1.32
			c-0.53,0.22-0.81,0.12-1.12-0.23c-0.09-0.11-0.2-0.21-0.32-0.29c-0.77-0.5-0.94-1.03-0.59-1.92c0.61-1.53-0.43-3.29-2.15-3.92
			c-0.42-0.15-0.68-0.32-0.57-0.76c0.02-0.09,0.01-0.18,0-0.27c-0.11-0.91,0.02-1.55,1.15-2.04c1.6-0.69,2.14-2.61,1.41-4.13
			c-0.2-0.41-0.15-0.67,0.22-0.92c0.16-0.11,0.3-0.24,0.42-0.38c0.51-0.63,1.03-0.82,1.96-0.51c1.74,0.59,3.68-0.32,4.37-1.92
			c0.19-0.45,0.43-0.6,0.91-0.54c0.12,0.02,0.25,0.01,0.37,0c0.92-0.08,1.56,0,2.05,0.98c0.76,1.52,2.89,2.04,4.62,1.34
			c0.38-0.15,0.63-0.17,0.87,0.14c0.1,0.13,0.23,0.24,0.37,0.34c0.72,0.54,1.08,1.04,0.65,2.03c-0.65,1.49,0.46,3.29,2.18,3.91
			c0.41,0.15,0.61,0.31,0.54,0.72c-0.02,0.13-0.02,0.27,0,0.41c0.13,0.88-0.07,1.45-1.11,1.91c-1.61,0.71-2.19,2.6-1.46,4.12
			c0.21,0.43,0.14,0.69-0.23,0.98c-0.38,0.29-0.71,0.64-1.06,0.95C262.37,322.86,262.28,322.99,262.08,322.97z"/>
		<path class="st19" d="M239.17,349.74c-0.85-2.08-2.79-2.35-4.8-2.52c-0.86-0.07-1.73-0.13-2.58-0.3
			c-1.56-0.32-2.74-1.15-3.42-2.49c-0.2-0.39-0.37-0.52-0.82-0.34c-0.4,0.17-0.83,0.3-1.26,0.39c-0.49,0.11-0.5,0.33-0.3,0.67
			c0.26,0.44,0.5,0.88,0.78,1.36c-1.86,0.61-4.01,0.86-4.65,3.15c-0.44-2.96,1.21-6.03,4.07-7.58c3.1-1.67,6.27-1.61,9.25,0.21
			C238.33,344.04,239.41,346.63,239.17,349.74z"/>
		<path class="st20" d="M227.79,327.36c0.68-1.23,1.32-2.4,1.95-3.57c0.88-1.62,1.78-3.23,2.64-4.86c0.18-0.35,0.39-0.51,0.83-0.49
			c0.79,0.04,1.59,0.02,2.38,0.01c0.3-0.01,0.49,0.06,0.64,0.34c1.51,2.79,3.04,5.57,4.56,8.35c0.03,0.05,0.01,0.13,0.02,0.22
			C236.5,327.36,232.19,327.36,227.79,327.36z"/>
		<path class="st20" d="M269.76,327.36c-0.07-0.25,0.1-0.41,0.2-0.58c1.42-2.61,2.85-5.21,4.25-7.82c0.2-0.37,0.42-0.54,0.9-0.52
			c0.92,0.04,2.02-0.26,2.7,0.11c0.67,0.37,0.91,1.39,1.32,2.14c1.1,2,2.19,4,3.28,6.01c0.11,0.2,0.28,0.37,0.27,0.65
			C278.37,327.36,274.06,327.36,269.76,327.36z"/>
		<path class="st24" d="M227.2,329.69c0.2-0.01,0.39-0.02,0.59-0.02c4.37,0,8.74,0.01,13.1-0.01c0.58,0,0.72,0.09,0.53,0.62
			c-0.79,2.23-3.13,3.86-5.71,3.86c-1.34,0-2.68,0.14-4.01-0.13C229.43,333.54,227.48,331.68,227.2,329.69z"/>
		<path class="st24" d="M268.95,329.66c1.52,0,2.93,0,4.35,0c3.18,0,6.35,0.01,9.53-0.01c0.55,0,0.6,0.15,0.46,0.57
			c-0.73,2.22-3.11,3.9-5.66,3.91c-1.33,0-2.69,0.17-4-0.13C271.15,333.45,269.67,331.98,268.95,329.66z"/>
		<path class="st19" d="M234.34,316.15c-2.23,0-4.47-0.01-6.7,0.01c-0.48,0-0.7-0.06-0.7-0.58c0.01-1.63-0.02-1.63,1.77-1.63
			c4.07,0,8.14,0.01,12.2-0.01c0.58,0,0.83,0.08,0.81,0.69c-0.04,1.52-0.01,1.52-1.66,1.52
			C238.16,316.15,236.25,316.15,234.34,316.15z"/>
		<path class="st19" d="M276.23,316.15c-2.26,0-4.51-0.01-6.77,0.01c-0.49,0-0.62-0.13-0.63-0.57c-0.01-1.64-0.03-1.64,1.76-1.64
			c4.09,0,8.19,0.01,12.28-0.01c0.59,0,0.75,0.15,0.74,0.68c-0.03,1.53,0,1.53-1.65,1.53C280.05,316.15,278.14,316.15,276.23,316.15
			z"/>
		<path class="st23" d="M275.67,370.14c-0.84,0-1.68-0.01-2.53,0c-0.31,0-0.44-0.05-0.38-0.38c0.2-1.04,0.32-2.11,0.56-3.14
			c0.3-1.25,1.12-2.19,2.33-2.84c0.29-0.16,0.53-0.2,0.78,0.03c0.02,0.02,0.04,0.02,0.06,0.04c0.71,0.45,1.68,0.77,2.05,1.39
			c0.36,0.59,0.11,1.5,0.12,2.27c0.01,0.68-0.04,1.36,0.02,2.04c0.05,0.54-0.18,0.65-0.71,0.62
			C277.21,370.12,276.44,370.14,275.67,370.14z"/>
		<path class="st23" d="M284.06,370.14c-0.77,0-1.54-0.02-2.31,0.01c-0.42,0.01-0.62-0.06-0.61-0.51c0.03-1.36,0.02-2.72,0.01-4.09
			c0-0.31,0.12-0.5,0.41-0.65c0.51-0.28,1.04-0.55,1.48-0.91c0.57-0.47,1.02-0.32,1.55,0.04c1.35,0.92,1.93,2.19,2.13,3.67
			c0.08,0.63,0.17,1.26,0.3,1.88c0.09,0.45-0.06,0.6-0.56,0.57C285.65,370.12,284.86,370.14,284.06,370.14z"/>
		<path class="st19" d="M254.08,333.05c0-1.68,0.02-3.36-0.01-5.04c-0.01-0.45,0.15-0.57,0.63-0.57c1.78-0.01,1.78-0.03,1.78,1.62
			c0,2.97-0.02,5.95,0.01,8.92c0.01,0.54-0.17,0.68-0.75,0.68c-1.67-0.02-1.67,0-1.67-1.52
			C254.08,335.77,254.08,334.41,254.08,333.05z"/>
		<path class="st25" d="M260.62,370.18c-0.59-0.03-1.32,0.13-1.73-0.13c-0.42-0.27-0.28-1-0.39-1.52c-0.21-1.09-0.38-2.19-0.61-3.27
			c-0.11-0.52,0.36-0.66,0.62-0.91c0.87-0.83,0.87-0.81,1.81-0.06c1.18,0.94,1.62,2.18,1.8,3.54c0.08,0.61,0.16,1.21,0.29,1.81
			c0.09,0.43-0.05,0.57-0.53,0.53c-0.42-0.03-0.84-0.01-1.26-0.01C260.62,370.17,260.62,370.17,260.62,370.18z"/>
		<path class="st25" d="M249.88,370.16c-0.05,0-0.1,0-0.15,0c-1.7,0-1.7,0-1.42-1.51c0.13-0.71,0.22-1.43,0.41-2.13
			c0.29-1.1,1.02-1.94,2.03-2.59c0.35-0.22,0.57-0.23,0.94,0.05c0.85,0.62,1.08,1.29,0.8,2.28c-0.33,1.13-0.46,2.31-0.64,3.47
			c-0.05,0.36-0.21,0.46-0.57,0.44C250.83,370.14,250.35,370.16,249.88,370.16z"/>
		<path class="st25" d="M225.26,370.16c-1.85,0-1.85,0-1.54-1.67c0.12-0.67,0.22-1.35,0.4-2c0.29-1.08,1.01-1.9,1.99-2.54
			c0.37-0.25,0.61-0.25,1,0.06c0.76,0.6,1.07,1.21,0.79,2.16c-0.33,1.13-0.46,2.31-0.64,3.48c-0.06,0.39-0.22,0.56-0.66,0.52
			C226.16,370.13,225.71,370.16,225.26,370.16z"/>
		<path class="st25" d="M235.87,370.16c-0.48-0.05-1.23,0.23-1.62-0.11c-0.33-0.29-0.28-0.96-0.38-1.47
			c-0.21-1.09-0.37-2.19-0.61-3.28c-0.11-0.49,0.28-0.64,0.54-0.88c0.97-0.91,1-0.9,2.04-0.02c1.13,0.96,1.5,2.2,1.68,3.53
			c0.08,0.61,0.16,1.21,0.29,1.81c0.07,0.35-0.05,0.44-0.41,0.42C236.92,370.14,236.45,370.16,235.87,370.16z"/>
		<path class="st26" d="M255.31,363.43c-0.59,0-2.07-0.93-2.25-1.42c-0.16-0.44,0.35-0.99,0.85-0.93c0.91,0.11,1.82,0.11,2.73,0
			c0.49-0.06,1,0.51,0.84,0.94C257.31,362.49,255.85,363.43,255.31,363.43z"/>
		<path class="st26" d="M230.7,363.43c-0.61,0-2.12-0.95-2.24-1.44c-0.07-0.28,0.13-0.52,0.21-0.78c0.13-0.41,0.44-0.14,0.67-0.12
			c0.89,0.08,1.78,0.1,2.67-0.01c0.5-0.06,1.02,0.5,0.87,0.93C232.72,362.47,231.24,363.43,230.7,363.43z"/>
		<path class="st26" d="M279.85,363.17c-0.69-0.43-1.4-0.84-2.05-1.32c-0.2-0.15,0.06-0.46,0.14-0.69c0.1-0.29,0.31-0.12,0.49-0.09
			c0.99,0.13,1.98,0.15,2.96-0.01c0.24-0.04,0.47-0.1,0.51,0.18c0.03,0.23,0.42,0.48,0.03,0.72c-0.61,0.38-1.23,0.76-1.85,1.13
			C280.01,363.12,279.94,363.13,279.85,363.17z"/>
		<path class="st27" d="M230.67,370.15c-1.02,0-1.02,0-0.86-0.86c0.19-1.04,0.39-2.09,0.58-3.13c0.03-0.17,0.02-0.41,0.27-0.42
			c0.28-0.01,0.23,0.27,0.26,0.41c0.23,1.17,0.47,2.35,0.65,3.53C231.7,370.53,230.91,369.95,230.67,370.15z"/>
		<path class="st27" d="M255.27,370.15c-1.02,0-1,0-0.82-0.92c0.19-0.98,0.35-1.96,0.54-2.95c0.04-0.21-0.02-0.54,0.3-0.53
			c0.29,0.01,0.25,0.34,0.28,0.55c0.18,0.96,0.33,1.92,0.52,2.88C256.28,370.15,256.3,370.15,255.27,370.15z"/>
		<path class="st28" d="M222.04,353.37c0.01,1.13-0.11,1.23-1.33,1.05c-0.66-0.1-1.09-0.52-1.1-1.1c-0.01-0.6,0.37-1,1.05-1.12
			C221.92,351.97,222.03,352.06,222.04,353.37z"/>
		<path class="st29" d="M246.65,353.37c0,0.02,0.01,0.05,0,0.07c-0.26,0.29,0.61,0.94-0.37,0.99c-1.36,0.07-1.99-0.26-2.04-1.04
			c-0.05-0.68,0.43-1.14,1.26-1.22c0.07-0.01,0.15,0,0.22-0.01c0.68-0.1,1.1,0.06,0.93,0.8
			C246.62,353.09,246.64,353.23,246.65,353.37C246.65,353.37,246.65,353.37,246.65,353.37z"/>
		<path class="st29" d="M264.53,354.43c-0.53,0.11-0.85-0.04-0.64-0.69c0.05-0.15-0.01-0.32,0.03-0.47c0.11-0.44-0.43-1.2,0.73-1.12
			c1.11,0.07,1.67,0.38,1.67,1.13c0.01,0.73-0.52,1.14-1.48,1.15C264.77,354.43,264.69,354.43,264.53,354.43z"/>
		<path class="st28" d="M239.3,353.28c0,0.03-0.01-0.02,0-0.06c0.1-0.43-0.38-1.14,0.73-1.07c1.1,0.07,1.67,0.39,1.68,1.13
			c0.01,0.69-0.52,1.13-1.41,1.15C239.26,354.46,239.26,354.46,239.3,353.28z"/>
		<path class="st30" d="M230.61,356.66c-1.09,0.02-2.04-0.39-2.9-1.07c-0.35-0.28-0.36-0.49,0.01-0.74
			c0.18-0.12,0.33-0.28,0.47-0.43c0.47-0.51,0.86-0.93,1.65-0.25c0.55,0.47,1.43,0.31,2.03-0.22c0.35-0.31,0.53-0.26,0.79,0.04
			c0.2,0.23,0.45,0.42,0.68,0.63c0.72,0.65,0.72,0.65-0.06,1.22C232.52,356.4,231.65,356.67,230.61,356.66z"/>
		<path class="st30" d="M278.26,353.63c1.28,1,1.72,1.02,3.01,0.17c0.18-0.12,0.28-0.13,0.43,0.01c0.26,0.24,0.53,0.48,0.79,0.72
			c0.85,0.77,0.85,0.77-0.12,1.41c-1.69,1.12-4.06,0.92-5.5-0.43c-0.24-0.22-0.3-0.35-0.01-0.58
			C277.35,354.52,277.8,354.06,278.26,353.63z"/>
		<path class="st30" d="M255.31,356.66c-1.23,0.02-2.23-0.41-3.09-1.17c-0.23-0.21-0.25-0.35,0-0.54c0.21-0.16,0.4-0.34,0.58-0.53
			c0.47-0.48,0.84-0.95,1.64-0.26c0.57,0.49,1.41,0.31,2.08-0.25c0.29-0.25,0.45-0.23,0.69,0.02c0.24,0.26,0.52,0.49,0.79,0.73
			c0.68,0.62,0.67,0.61-0.1,1.18C257.14,356.39,256.27,356.67,255.31,356.66z"/>
		<path class="st18" d="M255.27,307.16c4.76,0,8.65,3.55,8.64,7.91c-0.01,4.3-3.92,7.87-8.63,7.88c-4.73,0-8.65-3.59-8.64-7.93
			C246.65,310.7,250.54,307.16,255.27,307.16z"/>
		<path class="st23" d="M261.4,315.05c0,3.11-2.74,5.6-6.15,5.6c-3.35,0-6.09-2.51-6.09-5.58c-0.01-3.14,2.69-5.61,6.11-5.61
			C258.7,309.45,261.4,311.91,261.4,315.05z"/>
		<path class="st18" d="M255.27,311.66c2.05,0,3.74,1.54,3.72,3.41c-0.02,1.82-1.71,3.37-3.71,3.37c-2.02,0-3.73-1.58-3.72-3.43
			C251.58,313.17,253.25,311.66,255.27,311.66z"/>
		<path class="st31" d="M256.48,315.05c0,0.59-0.52,1.09-1.17,1.1c-0.67,0.02-1.23-0.49-1.23-1.12c0-0.61,0.5-1.07,1.17-1.08
			C255.96,313.95,256.48,314.41,256.48,315.05z"/>
	</g>
	<g>
		<path class="st32" d="M216.13,363.93c0.33,0.35,0.2,0.78,0.2,1.17c0.01,3.21,0.08,6.43-0.03,9.64c-0.04,1.1,0.47,1.32,1.41,1.36
			c3.2,0.16,6,1.28,8.47,3.14c3.6,2.71,5.5,6.28,5.66,10.53c0.15,4.02,0.04,8.05,0.03,12.07c0,1.4-0.78,2.11-2.3,2.11
			c-4.23,0.01-8.46,0.01-12.69,0c-1.6,0-2.29-0.67-2.3-2.19c-0.01-1.45-0.03-2.91,0.01-4.36c0.02-0.67-0.17-1.11-0.81-1.51
			c-4.24-2.68-8.43-5.44-12.29-8.58c-1.09-0.89-2.22-1.76-3.24-2.72c-2.85-2.66-5.94-5.1-8.6-7.94c-1.41-1.5-2.18-3.28-2.19-5.28
			c-0.03-5.11-0.02-10.21-0.02-15.32c0-2.01,0.79-3,2.88-3.65c1.83,0.56,2.67,1.59,2.67,3.37c0.01,3.68,0,7.37,0.01,11.05
			c0,0.62-0.12,1.21-0.3,1.8c-0.61,2.04-0.07,3.83,1.49,5.32c2.46,2.35,4.99,4.65,7.49,6.96c0.1,0.1,0.21,0.19,0.32,0.28
			c0.29,0.23,0.58,0.27,0.87,0.01c0.3-0.27,0.4-0.57,0.11-0.89c-0.37-0.42-0.8-0.78-1.22-1.16c-2.16-2.01-4.33-4.01-6.49-6.02
			c-1.25-1.16-1.84-2.49-1.26-4.14c0.17-0.49,0.14-1,0.14-1.51c0-3.72-0.01-7.44,0.01-11.15c0-0.46-0.13-0.96,0.32-1.33
			c0.37-1.15,0.09-2.33,0.17-3.49c0.13-1.83,1.96-3.33,3.92-3.16c0.17,0.01,0.32,0.12,0.48,0.19c-0.19,0.16-0.4,0.27-0.08,0.54
			c1.05,0.89,1.29,2.04,1.28,3.31c-0.03,4.52,0,9.05-0.02,13.57c0,0.9,0.22,1.66,1.16,2.16c0.29-0.34,0.16-0.72,0.16-1.07
			c0.01-3.55,0-7.09,0.01-10.64c0-0.49-0.12-1.03,0.35-1.43c0.58-1.26,1.59-2.06,3.03-2.35c0.38-0.08,0.79-0.13,1.15,0.12
			c-0.3,0.34-0.05,0.55,0.2,0.76c0.95,0.83,1.19,1.87,1.19,3.04c-0.02,5.41-0.01,10.82-0.01,16.23c0,0.79,0.03,1.56,0.93,2.01
			c0.28-0.35,0.15-0.74,0.15-1.1c0.01-5.65,0-11.29,0.01-16.94c0-0.53-0.13-1.09,0.33-1.54c0.35,0.34,0.21,0.77,0.21,1.16
			c0.01,2.31,0.01,4.63,0.01,7.18c0.75-1.18,1.57-1.99,2.86-2.21c1.78,0.49,2.68,1.59,2.71,3.46c0.04,3.07,0.01,6.14,0.01,9.22
			c0,0.34-0.02,0.68,0.05,1.01c0.05,0.25,0.14,0.46,0.46,0.48c0.39,0.02,0.48-0.24,0.53-0.52c0.06-0.33,0.04-0.67,0.04-1.01
			c0-2.87-0.01-5.74,0.01-8.61C215.79,364.87,215.68,364.34,216.13,363.93z"/>
		<path class="st33" d="M194.48,354.98c-0.01,4.29-0.02,8.58-0.03,12.87c0,0.44,0.01,0.87-0.16,1.3c-0.57,1.4-0.07,2.58,0.99,3.58
			c2.64,2.48,5.28,4.95,7.97,7.37c0.63,0.56,0.38,0.83-0.09,1.26c-0.47,0.43-0.75,0.67-1.36,0.09c-2.59-2.47-5.26-4.87-7.86-7.33
			c-1.7-1.62-2.24-3.56-1.48-5.74c0.17-0.49,0.24-0.98,0.24-1.49c-0.01-3.35-0.12-6.69,0.04-10.03c0.09-2.01-0.5-3.49-2.43-4.44
			C192.59,352.27,193.96,353.12,194.48,354.98z"/>
		<path class="st33" d="M208.9,355.21c0,6.76,0,13.52,0,20.3c-1.24-0.48-1.75-1.17-1.75-2.32c0-5.27-0.06-10.55,0.03-15.82
			c0.03-1.84-0.23-3.42-2.24-4.52c0.55-0.05,0.86-0.07,1.17-0.1C207.58,353.03,208.58,353.78,208.9,355.21z"/>
		<path class="st34" d="M201.92,354.97c0,4.62,0,9.24,0,14.05c-1.26-0.94-2.1-1.69-2.05-3.25c0.14-4.39,0.01-8.79,0.07-13.18
			c0.02-1.66-0.3-3.08-2-4.08c0.37,0,0.74,0,1.11,0c1.66,0.36,2.78,1.62,2.83,3.24C201.91,352.82,201.91,353.9,201.92,354.97z"/>
		<path class="st35" d="M216.13,363.93c0,3.64-0.01,7.29-0.01,10.93c0,0.6,0.06,1.11-0.92,1.09c-0.93-0.01-0.84-0.51-0.84-1.06
			c0.01-3.14-0.08-6.28,0.03-9.41c0.07-1.9-0.64-3.25-2.42-4.14C214.32,361.22,215.68,362.07,216.13,363.93z"/>
	</g>
	<g>
		<path class="st32" d="M307.48,352.71c1.29-0.32,2.77,0.21,3.58,1.29c0.22,0.3,0.4,0.63,0.61,0.94c0.46,0.4,0.34,0.94,0.35,1.43
			c0.01,3.51,0,7.03,0.01,10.54c0,0.36-0.09,0.74,0.12,1.15c0.94-0.44,1.2-1.16,1.2-2.06c-0.01-3.01,0-6.01,0-9.02
			c0-1.69,0.01-3.38,0-5.07c-0.01-1.1,0.29-2.08,1.19-2.83c0.29-0.24,0.33-0.4,0-0.61c1.99-0.64,4.26,0.91,4.4,2.97
			c0.08,1.16-0.2,2.34,0.17,3.49c0.45,0.37,0.32,0.88,0.32,1.33c0.01,3.72,0.01,7.44,0.01,11.15c0,0.58-0.01,1.15,0.17,1.71
			c0.48,1.53-0.06,2.79-1.22,3.87c-2.26,2.11-4.53,4.21-6.8,6.31c-0.18,0.17-0.37,0.33-0.54,0.5c-0.34,0.36-0.97,0.69-0.39,1.26
			c0.65,0.64,1.04-0.01,1.42-0.36c2.31-2.12,4.58-4.26,6.89-6.37c1.89-1.74,2.7-3.73,1.82-6.17c-0.15-0.42-0.18-0.86-0.18-1.3
			c0-3.75-0.02-7.5,0.01-11.25c0.01-1.69,0.94-2.79,2.67-3.26c2.09,0.65,2.88,1.64,2.88,3.65c0.01,4.84-0.05,9.67,0.02,14.51
			c0.04,2.82-1.08,5.12-3.16,7.09c-7.1,6.72-14.56,13.06-23.11,18.19c-0.66,0.4-0.93,0.83-0.9,1.56c0.06,1.49,0.03,2.98,0.01,4.46
			c-0.02,1.39-0.73,2.08-2.19,2.09c-4.27,0.01-8.53,0.01-12.8,0c-1.53,0-2.29-0.72-2.3-2.12c-0.01-4.02-0.05-8.05,0.01-12.07
			c0.12-6.99,6.48-13.19,13.94-13.66c1.58-0.1,1.58-0.1,1.58-1.58c0-3.15,0-6.29,0.01-9.44c0-0.39-0.14-0.82,0.2-1.17
			c0.44,0.41,0.34,0.94,0.34,1.44c0.01,2.97-0.01,5.94,0.02,8.91c0,0.45-0.24,1.2,0.56,1.18c0.7-0.01,0.49-0.72,0.5-1.15
			c0.02-2.94,0.01-5.88,0.01-8.81c0-0.37-0.01-0.74,0.02-1.11c0.14-1.56,1.07-2.61,2.69-3.05c1.27,0.24,2.11,0.97,2.86,2.28
			c0-2.11-0.04-3.92,0.02-5.74c0.03-0.89-0.26-1.81,0.2-2.67c0.46,0.45,0.33,1.02,0.33,1.54c0.01,5.65,0,11.29,0.01,16.94
			c0,0.36-0.13,0.74,0.15,1.09c0.81-0.39,0.93-1.08,0.93-1.81c0.01-3.48,0-6.96,0-10.45c0-2.03,0.02-4.06-0.01-6.09
			c-0.02-1.14,0.28-2.14,1.19-2.94C307.53,353.26,307.79,353.05,307.48,352.71z"/>
		<path class="st33" d="M323.27,352.38c-1.78,0.89-2.54,2.19-2.43,4.13c0.16,2.63,0.04,5.27,0.04,7.91c0,1.61-0.04,3.21,0.42,4.81
			c0.56,1.94-0.32,3.57-1.74,4.93c-2.59,2.47-5.27,4.86-7.85,7.34c-0.65,0.62-0.9,0.18-1.27-0.17c-0.37-0.35-0.86-0.57-0.19-1.18
			c2.69-2.42,5.32-4.91,7.98-7.37c1.08-1,1.57-2.16,1.09-3.56c-0.16-0.46-0.18-0.92-0.18-1.4c-0.01-4.29-0.02-8.58-0.03-12.87
			C319.64,353.08,321,352.24,323.27,352.38z"/>
		<path class="st33" d="M307.48,352.71c0.31,0.03,0.62,0.06,1.17,0.1c-2.01,1.1-2.27,2.68-2.24,4.52
			c0.09,5.17-0.03,10.35,0.07,15.52c0.02,1.33-0.67,2.01-1.79,2.82c0-6.94,0-13.71,0-20.49C305,353.76,306,353,307.48,352.71z"/>
		<path class="st36" d="M314.53,348.48c0.36,0,0.73,0,1.14,0c-0.2,0.42-0.62,0.49-0.89,0.73c-0.74,0.66-1.13,1.45-1.13,2.43
			c0.02,4.73-0.08,9.47,0.06,14.2c0.04,1.52-0.87,2.2-2.04,3.21c0-4.87,0-9.49,0-14.11c0.01-1.07,0.01-2.15,0.04-3.22
			C311.75,350.1,312.87,348.84,314.53,348.48z"/>
		<path class="st35" d="M301.61,361.31c-1.78,0.89-2.49,2.25-2.42,4.14c0.11,3.13,0.03,6.27,0.03,9.41c0,0.55,0.09,1.05-0.84,1.06
			c-0.97,0.01-0.92-0.49-0.91-1.1c0.01-3.64,0-7.29-0.01-10.93C297.89,362.05,299.27,361.19,301.61,361.31z"/>
	</g>
</g>
<g>
	<g>
		<path class="st18" d="M157.03,249.07c-0.91-0.4-1.79-0.84-2.63-1.39c-1.26-0.83-2.45-1.8-4.14-1.69c-0.94,0.06-1.81-0.45-2.62-1
			c-1.96-1.32-3.81-2.51-6.46-2.41c-3.23,0.12-5.48-2.16-6.32-5.34c-0.63-2.43-1.28-4.85-1.9-7.29c-0.12-0.49-0.34-0.82-0.81-1.03
			c-0.67-0.29-1.32-0.64-1.97-0.97c-5.16-2.6-6.45-9.12-2.69-13.54c1.71-2,3.35-4.06,5.1-6.02c0.7-0.78,0.93-1.56,0.89-2.59
			c-0.3-7.39,1.41-14.3,4.95-20.74c2.92-5.3,6.79-9.72,11.72-13.15c0.52-0.36,0.5-0.55,0.17-1.05c-2.33-3.6-1.82-8.06,1.23-11.07
			c0.33-0.33,0.6-0.68,0.83-1.1c2.18-3.99,6.57-6.12,11.01-5.35c4.19,0.72,7.72,4.31,8.44,8.65c0.15,0.91,0.32,1.85,0.08,2.82
			c1.7,0.04,3.34,0.16,4.98,0.35c3.41,0.38,6.68,1.32,9.86,2.57c1.33,0.52,2.64,1.13,3.88,1.86c0.46,0.27,0.74,0.24,1.16-0.13
			c5.59-4.85,14.07-2.7,16.65,4.27c1.43,3.87,0.79,7.47-1.76,10.68c-0.39,0.49-0.42,0.8-0.12,1.36c2.25,4.28,3.73,8.81,4.27,13.66
			c0.23,2.08,0.43,4.16,0.28,6.24c-0.05,0.73,0.17,1.22,0.63,1.73c1.51,1.68,2.94,3.44,4.48,5.09c1.49,1.6,2.65,3.36,3.22,5.51
			c0.01,0.87,0.02,1.75,0.02,2.62c-0.16,2.3-1.25,4.11-2.85,5.66c-0.87,0.84-1.97,1.26-3.01,1.76c-0.89,0.43-1.36,1.03-1.55,2.02
			c-0.45,2.23-1.07,4.42-1.6,6.63c-0.91,3.76-4.02,6.05-7.94,5.69c-0.76-0.07-1.44,0.07-2.08,0.54c-0.99,0.73-2.06,1.35-3.07,2.06
			c-0.94,0.66-2.02,0.9-3.13,0.98c-0.7,0.05-1.31,0.25-1.87,0.66c-0.37,0.27-0.76,0.53-1.14,0.79c-0.91,0.62-1.82,1.26-2.96,1.38
			c-0.74,0.01-1.47,0.01-2.21,0.02c-0.77-0.14-1.55-0.24-2.19-0.76c-0.26-0.21-0.51-0.15-0.76,0.01c-0.62,0.41-1.32,0.58-2.01,0.8
			c-0.74,0.01-1.47,0.01-2.21,0.02c-1.85-0.25-3.03-1.38-3.65-3.09c-0.42-1.17-1.08-1.59-2.32-1.51c-2.62,0.16-2.03-0.3-3.09,2
			c-0.69,1.49-1.76,2.5-3.43,2.71c-0.74,0.01-1.47,0.01-2.21,0.02c-0.69-0.21-1.4-0.36-2.03-0.76c-0.25-0.16-0.51-0.21-0.76,0
			c-0.63,0.53-1.41,0.65-2.18,0.8C158.5,249.06,157.76,249.06,157.03,249.07z"/>
		<path class="st20" d="M166.4,248.99c2.03-0.67,3.17-2.18,3.8-4.16c0.19-0.59,0.49-0.9,1.12-0.76c0.06,0.01,0.12,0,0.18,0
			c0.98-0.01,2.04-0.26,2.91,0.04c0.94,0.33,0.92,1.63,1.42,2.45c0.73,1.2,1.85,1.81,3.06,2.32
			C174.74,248.92,170.57,248.95,166.4,248.99z"/>
		<path class="st37" d="M159.23,249.05c0.77-0.39,1.65-0.57,2.32-1.16c0.19-0.17,0.35-0.05,0.5,0.02c0.72,0.36,1.43,0.73,2.15,1.1
			C162.54,249.02,160.89,249.04,159.23,249.05z"/>
		<path class="st38" d="M181.11,248.86c0.71-0.38,1.41-0.77,2.13-1.14c0.15-0.07,0.31-0.19,0.5-0.03c0.68,0.58,1.56,0.74,2.34,1.12
			C184.42,248.83,182.77,248.85,181.11,248.86z"/>
		<path class="st39" d="M144.12,224.97c-0.15-2.29-1.18-3.96-2.94-5.21c-0.53-0.37-0.93-0.93-1.48-1.25
			c-2.28-1.34-2.73-3.69-3.19-5.99c-2.17-10.88-0.17-20.89,6.15-29.96c0.75-1.07,0.77-1.1,1.87-0.43c3.09,1.89,6.16,3.81,9.24,5.72
			c0.35,0.22,0.57,0.51,0.74,0.9c0.92,2.12,1.87,4.23,2.78,6.35c0.2,0.47,0.37,0.69,0.98,0.63c2.13-0.19,4.26-0.36,6.38-0.65
			c0.49-0.07,0.75,0.07,0.95,0.57c0.7,1.71,1.49,3.38,2.2,5.09c0.2,0.5,0.41,0.58,0.88,0.39c3.09-1.27,6.19-2.52,9.28-3.77
			c0.33-0.13,0.54-0.3,0.56-0.72c0.06-1.34,0.18-2.67,0.26-4.01c0.1-1.58,0.16-3.17,0.28-4.76c0.03-0.37-0.1-0.66-0.24-0.97
			c-1.25-2.78-2.49-5.57-3.77-8.34c-0.26-0.57-0.31-1.06-0.08-1.66c1.1-2.81,2.18-5.63,3.2-8.47c0.22-0.62,0.52-0.73,1.07-0.62
			c3.55,0.74,6.94,1.92,10.15,3.64c0.38,0.2,0.49,0.36,0.23,0.76c-0.27,0.41-0.46,0.86-0.83,1.21c-4.73,4.57-3.3,12.04,2.77,14.48
			c0.14,0.05,0.27,0.11,0.53,0.21c-1.2,1.31-2.32,2.57-3.48,3.79c-0.35,0.37-0.43,0.65-0.2,1.12c0.45,0.91,1.21,1.9,1.13,2.78
			c-0.09,0.89-1.03,1.7-1.61,2.54c-1.37,1.99-2.74,3.98-4.13,5.95c-0.3,0.42-0.4,0.7-0.02,1.18c2.04,2.57,4.03,5.18,6.02,7.79
			c0.29,0.38,0.55,0.45,1,0.33c4.01-1.06,8.03-2.1,12.05-3.12c0.42-0.11,0.59-0.37,0.75-0.72c0.94-2.06,1.96-4.08,2.81-6.17
			c0.46-1.14,1.17-1.82,2.41-2.16c0.04,0.71,0.12,1.4,0.12,2.09c0.02,4.02-0.33,8-1.6,11.85c-0.18,0.55-0.45,0.98-0.89,1.36
			c-1.22,1.04-2.41,2.12-3.61,3.18c-1.34,1.19-1.92,2.76-2.08,4.59c-1.06-0.82-2.14-1.37-3.41-1.42c-2.32-0.08-4.07,0.93-5.23,2.97
			c-0.23,0.42-0.39,0.53-0.82,0.26c-2.94-1.9-7.72,1.1-7.96,3.98c-0.04,0.49-0.28,0.56-0.71,0.6c-2.34,0.2-4.11,1.28-5.04,3.56
			c-0.16,0.39-0.38,0.6-0.71,0.78c-2.39,1.25-3.49,3.22-3.18,5.95c0.06,0.56-0.12,0.66-0.62,0.67c-1.51,0.02-1.51,0.04-1.53-1.47
			c-0.01-1.12-0.3-2.16-0.96-3.06c-0.27-0.38-0.28-0.63,0.06-0.95c0.29-0.27,0.48-0.66,0.79-0.91c1.76-1.41,2.09-3.35,2.18-5.47
			c0.09-2.11,0.33-4.22,0.54-6.33c0.12-1.29,0.86-2.38,1.23-3.59c0.73-2.33,1.9-4.36,3.87-5.83c0.45-0.33,0.53-0.7,0.34-1.28
			c-0.85-2.56-1.63-5.14-2.43-7.72c-0.12-0.4-0.25-0.73-0.73-0.82c-2.34-0.45-4.69-0.93-7.09-0.92c-4.11,0.01-7.99,1.09-11.85,2.51
			c-2,0.74-3.05,1.68-3.3,3.91c-0.3,2.61-1.02,5.17-1.6,7.75c-0.12,0.55,0.01,0.76,0.51,0.92c1.69,0.52,3.37,1.11,5.07,1.6
			c0.58,0.17,0.84,0.47,1.03,1.01c0.45,1.25,1.03,2.46,1.41,3.73c0.34,1.11,0.89,1.94,1.99,2.33c0.6,0.21,0.89,0.61,0.91,1.31
			c0.03,0.86,0.21,1.71,0.32,2.56c-0.12,0.03-0.17,0.05-0.22,0.05c-1.34,0.11-1.89-0.56-2.41-1.84c-1.15-2.84-4.89-4.04-7.62-2.68
			c-0.29,0.14-0.44,0.29-0.71-0.12C150.62,223.11,147.45,222.52,144.12,224.97z"/>
		<path class="st40" d="M159.55,179.68c0.01,1.5,0.06,3,0.02,4.49c-0.02,0.67,0.2,0.91,0.84,0.81c0.21-0.03,0.43-0.03,0.64-0.01
			c0.63,0.08,0.76-0.22,0.75-0.81c-0.05-2.93-0.04-5.87-0.1-8.8c-0.01-0.68,0.16-0.84,0.84-0.93c4.12-0.54,7.1-2.7,8.71-6.65
			c0.22-0.53,0.51-0.7,1.04-0.66c1.04,0.07,2.08,0.12,3.12,0.13c0.66,0.01,0.75,0.22,0.51,0.84c-1.16,3.01-2.27,6.04-3.42,9.06
			c-0.17,0.44-0.16,0.8,0.04,1.23c1.31,2.88,2.59,5.77,3.9,8.66c0.21,0.46,0.34,0.92,0.31,1.44c-0.12,2.18-0.23,4.36-0.33,6.54
			c-0.02,0.4-0.19,0.6-0.56,0.74c-2.02,0.8-4.04,1.62-6.04,2.47c-0.45,0.19-0.64,0.1-0.82-0.35c-0.64-1.55-1.35-3.07-1.98-4.62
			c-0.22-0.54-0.51-0.63-1.05-0.57c-2.19,0.25-4.38,0.44-6.57,0.68c-0.5,0.06-0.53-0.32-0.66-0.61c-0.8-1.79-1.6-3.57-2.36-5.37
			c-0.23-0.55-0.57-0.92-1.06-1.22c-3.24-2.01-6.46-4.05-9.71-6.06c-0.5-0.31-0.65-0.48-0.18-1c2-2.17,4.21-4.08,6.64-5.73
			c0.3-0.2,0.51-0.2,0.82-0.02c1.88,1.15,3.88,1.65,6.06,1.15c0.57-0.13,0.58,0.16,0.58,0.58
			C159.51,176.63,159.53,178.15,159.55,179.68z"/>
		<path class="st40" d="M177.27,212.97c0.03,0.11-0.16,0.26-0.33,0.38c-2.09,1.41-2.64,3.77-3.66,5.88
			c-1.33,2.74-1.48,5.67-1.73,8.61c-0.12,1.39-0.23,2.79-0.34,4.18c-0.02,0.23-0.09,0.42-0.24,0.59c-0.69,0.79-1.41,1.56-2.07,2.38
			c-0.43,0.53-1,0.36-1.14-0.02c-0.5-1.34-1.73-2.3-1.74-3.91c-0.01-1.36-0.33-2.71-0.47-4.07c-0.06-0.55-0.26-0.93-0.79-1.11
			c-1.38-0.49-2.13-1.49-2.52-2.92c-0.33-1.22-0.92-2.37-1.33-3.57c-0.2-0.59-0.51-0.9-1.11-1.07c-1.38-0.39-2.74-0.88-4.11-1.3
			c-0.49-0.15-0.65-0.34-0.52-0.92c0.49-2.15,0.92-4.31,1.33-6.47c0.12-0.64,0.42-1,1.04-1.21c1.7-0.59,3.38-1.27,5.08-1.86
			c1.22-0.43,2.53-0.37,3.79-0.61c2.72-0.52,5.41-0.12,8.1,0.37c0.51,0.09,0.78,0.28,0.93,0.82c0.52,1.79,1.1,3.55,1.66,5.33
			C177.15,212.58,177.19,212.7,177.27,212.97z"/>
		<path class="st40" d="M196.61,193.46c0.01,1.5,0.05,3,0.03,4.49c-0.01,0.63,0.21,0.85,0.8,0.76c0.15-0.02,0.31-0.03,0.46,0
			c0.86,0.15,1-0.27,0.98-1.05c-0.07-2.87-0.05-5.74-0.11-8.61c-0.01-0.64,0.15-0.85,0.8-0.86c1.55-0.03,2.99-0.55,4.32-1.34
			c0.44-0.27,0.63-0.23,0.88,0.26c1.76,3.45,2.95,7.09,3.66,10.91c0.12,0.66,0,1.14-0.71,1.36c-1.81,0.55-2.84,1.81-3.49,3.6
			c-0.59,1.63-1.44,3.16-2.14,4.75c-0.22,0.51-0.55,0.77-1.06,0.9c-3.11,0.79-6.21,1.59-9.31,2.42c-0.53,0.14-0.84,0.05-1.17-0.39
			c-1.32-1.76-2.65-3.51-4.02-5.23c-0.37-0.46-0.35-0.74-0.02-1.19c1.75-2.48,3.46-4.99,5.22-7.46c0.4-0.56,0.43-1.01,0.11-1.6
			c-0.39-0.74-1.03-1.57-0.93-2.27c0.1-0.7,0.97-1.29,1.53-1.91c0.51-0.58,1.12-1.09,1.56-1.71c0.53-0.75,1.28-0.86,2.05-1.01
			c0.52-0.1,0.53,0.24,0.53,0.61C196.58,190.41,196.6,191.93,196.61,193.46z"/>
		<path class="st41" d="M161.65,167.81c-0.01-1.12-0.05-2.18-0.02-3.23c0.02-0.59-0.19-0.8-0.74-0.72c-0.06,0.01-0.12,0-0.18,0
			c-1.26,0-1.26,0-1.32,1.27c-0.27,0.15-0.43-0.13-0.65-0.19c-0.39-0.1-0.79-0.69-1.11-0.37c-0.42,0.41-0.61,1.06-0.88,1.62
			c-0.06,0.13,0.01,0.23,0.14,0.3c0.14,0.07,0.28,0.14,0.41,0.22c0.7,0.43,1.87,0.59,2.05,1.27c0.31,1.2,0.13,2.53,0.14,3.81
			c0,0.39-0.34,0.4-0.58,0.47c-2.59,0.7-5.44-0.53-6.86-2.95c-1.41-2.39-1.13-5.55,0.76-7.53c0.73-0.77,1.32-1.59,1.86-2.5
			c1.62-2.74,5.16-4.37,8.12-3.81c3.68,0.7,6.29,3.19,6.95,6.66c0.94,4.88-2.2,9.38-7.05,10.09c-0.31,0.05-0.8,0.22-0.91-0.14
			c-0.13-0.46-0.25-1.01,0.26-1.45c1.21-1.05,2.37-2.17,3.59-3.21c0.46-0.39,0.53-0.62,0.1-1.1c-1.02-1.11-0.99-1.13-2.11-0.1
			c-0.57,0.52-1.15,1.03-1.73,1.54C161.84,167.77,161.81,167.77,161.65,167.81z"/>
		<path class="st41" d="M198.71,181.51c-0.01-1.1-0.05-2.13-0.02-3.16c0.02-0.62-0.19-0.87-0.79-0.77c-0.03,0-0.06,0-0.09,0
			c-1.28,0-1.28,0-1.39,1.23c-0.38,0.11-0.65-0.15-0.91-0.32c-0.59-0.39-0.91-0.32-1.23,0.36c-0.57,1.23-0.66,1.31,0.61,1.83
			c1.29,0.53,1.91,1.29,1.64,2.72c-0.06,0.33,0,0.68,0,1.03c0,1.6,0.25,1.38-1.36,1.68c-3.14,0.6-6.65-2.2-6.94-5.44
			c-0.21-2.34,0.48-4.3,2.25-5.82c0.31-0.27,0.53-0.59,0.72-0.95c1.87-3.64,5.43-5.4,9.24-4.59c3.54,0.75,6.24,3.88,6.45,7.77
			c0.24,4.39-2.72,8.24-7.34,8.87c-0.25,0.03-0.7,0.22-0.76-0.24c-0.06-0.46-0.2-0.97,0.27-1.38c1.21-1.05,2.37-2.17,3.6-3.19
			c0.54-0.45,0.51-0.76,0.03-1.16c-0.02-0.02-0.04-0.05-0.06-0.07c-0.88-0.99-0.88-0.99-1.85-0.09c-0.59,0.54-1.19,1.08-1.79,1.61
			C198.95,181.47,198.88,181.47,198.71,181.51z"/>
		<path class="st42" d="M210.83,209.73c0.9,1.01,1.67,1.88,2.43,2.75c0.82,0.93,1.63,1.86,2.44,2.8c2.67,3.09,1.78,7.98-1.8,9.87
			c-1.76,0.93-3.51,1.87-5.3,2.73c-2.4,1.16-4.96-0.15-5.51-2.79c-0.29-1.41,0.18-2.59,1.2-3.52c1.34-1.23,2.71-2.43,4.08-3.62
			c0.39-0.34,0.62-0.73,0.81-1.21C210.03,214.55,210.6,212.29,210.83,209.73z"/>
		<path class="st42" d="M133.81,210.35c0.26,2.65,0.9,4.9,1.78,7.09c0.18,0.44,0.42,0.8,0.79,1.11c1.37,1.15,2.71,2.33,4.08,3.48
			c1.44,1.21,1.84,3.14,0.97,4.79c-0.9,1.7-2.87,2.61-4.6,1.86c-2.3-0.99-4.59-2.05-6.72-3.35c-2.68-1.63-3.4-6.05-1.46-8.72
			C130.18,214.49,131.97,212.56,133.81,210.35z"/>
		<path class="st42" d="M135.43,230.61c1.54,0.57,2.91,0.71,4.31,0.28c0.36-0.11,0.34,0.13,0.43,0.38c0.39,1.08,1.35,1.22,2.02,0.29
			c0.99-1.38,1.92-2.81,2.89-4.21c1.21-1.74,3.2-2.16,4.8-1.03c1.61,1.13,1.96,3.19,0.8,4.93c-1.59,2.39-3.21,4.77-4.84,7.14
			c-1.27,1.84-3.09,2.41-5.16,1.98c-1.89-0.39-3.1-1.64-3.61-3.56C136.53,234.81,136,232.81,135.43,230.61z"/>
		<path class="st42" d="M209.59,229.95c-0.68,2.56-0.96,5.02-1.92,7.26c-1.38,3.24-5.93,3.8-8.1,1c-1.91-2.47-3.68-5.06-5.42-7.66
			c-1.06-1.58-0.57-3.6,1-4.68c1.5-1.04,3.45-0.72,4.57,0.79c1.05,1.42,2.06,2.87,3.06,4.32c0.31,0.45,0.68,0.73,1.22,0.62
			c0.5-0.1,0.83-0.41,0.85-0.95c0.02-0.38,0.19-0.4,0.47-0.32C206.71,230.71,208.06,230.56,209.59,229.95z"/>
		<path class="st42" d="M188.9,227.95c1.3,0,2.24,0.67,2.56,1.85c0.3,1.1,0.83,2.05,1.48,2.97c1.46,2.04,2.89,4.09,4.34,6.14
			c0.25,0.35,0.51,0.7,0.79,1.03c0.9,1.01,0.9,1-0.19,1.74c-0.53,0.36-1.07,0.72-1.61,1.07c-1.97,1.29-4.5,0.79-5.66-1.26
			c-1.69-2.98-3.29-6.02-4.88-9.07c-0.7-1.35-0.3-2.63,0.95-3.48C187.4,228.46,188.09,227.9,188.9,227.95z"/>
		<path class="st42" d="M155.92,228.23c2.75-0.06,4.37,2.54,3.11,4.98c-1.4,2.72-2.88,5.4-4.19,8.16c-1.04,2.18-3.93,3.33-6.1,1.66
			c-0.68-0.52-1.44-0.94-2.17-1.39c-0.33-0.21-0.37-0.34-0.07-0.68c2.42-2.81,4.3-6.03,6.38-9.09c0.35-0.52,0.46-1.14,0.63-1.74
			C153.85,228.95,154.74,228.26,155.92,228.23z"/>
		<path class="st42" d="M190.78,244.73c-0.8,0.53-1.48,1.05-2.23,1.46c-1.47,0.82-3.46,0.33-4.34-1.21
			c-1.56-2.7-3.01-5.47-4.45-8.24c-0.52-1-0.19-2.05,0.73-2.71c0.4-0.29,0.82-0.55,1.26-0.75c1.04-0.48,1.82-0.2,2.37,0.8
			c1.29,2.39,2.61,4.78,3.87,7.19C188.67,242.6,189.4,243.88,190.78,244.73z"/>
		<path class="st42" d="M154.48,245.05c1.51-0.97,2.23-2.49,2.99-3.98c1.18-2.31,2.4-4.61,3.55-6.94c0.31-0.61,0.73-0.86,1.37-0.88
			c2.32-0.08,3.74,2.11,2.68,4.16c-1.22,2.4-2.44,4.79-3.68,7.18c-1.19,2.29-3.23,2.84-5.37,1.46
			C155.53,245.75,155.05,245.43,154.48,245.05z"/>
		<path class="st42" d="M165.16,246.77c-0.56,0.04-1.1-0.42-1.71-0.69c-0.29-0.13-0.19-0.31-0.08-0.53
			c1.33-2.58,2.67-5.16,3.97-7.75c0.25-0.5,0.47-0.22,0.69-0.06c1.14,0.78,1.66,2.41,1.13,3.81c-0.48,1.27-1.01,2.52-1.58,3.76
			C167.15,246.26,166.36,246.75,165.16,246.77z"/>
		<path class="st42" d="M180.05,246.64c-1.05,0.01-1.83-0.37-2.25-1.2c-0.67-1.32-1.3-2.67-1.84-4.06c-0.5-1.3,0.04-2.9,1.09-3.69
			c0.36-0.27,0.55-0.32,0.81,0.18c1.27,2.45,2.57,4.87,3.9,7.29c0.26,0.48,0.3,0.75-0.28,0.96
			C180.97,246.29,180.53,246.7,180.05,246.64z"/>
		<path class="st30" d="M147.74,203.7c0.01,1.12-0.01,2.24,0.04,3.36c0.03,0.59-0.17,0.76-0.72,0.73c-0.7-0.04-1.41-0.01-2.11,0.01
			c-0.36,0.01-0.64-0.08-0.93-0.3c-1.92-1.49-3.84-2.98-5.79-4.43c-0.44-0.33-0.43-0.53-0.1-0.94c1.24-1.5,2.47-3.01,3.66-4.55
			c0.31-0.4,0.56-0.35,0.92-0.18c1.49,0.71,2.98,1.42,4.48,2.09c0.41,0.18,0.53,0.42,0.52,0.85
			C147.71,201.46,147.73,202.58,147.74,203.7z"/>
		<path class="st40" d="M145.56,203.34c0,0.53,0,1.06,0.02,1.59c0.03,0.74-0.29,0.72-0.76,0.37c-1.15-0.87-2.29-1.76-3.44-2.62
			c-0.37-0.27-0.43-0.47-0.12-0.88c1.48-1.97,1.46-1.97,3.66-0.92c0.44,0.21,0.68,0.46,0.64,0.98
			C145.52,202.35,145.55,202.85,145.56,203.34z"/>
	</g>
	<g>
		<path class="st18" d="M214.76,172.44c0.52-0.18,1.09-0.18,1.63-0.3c1.25-0.27,2.42-0.66,3.51-1.22c0.52-0.26,0.58-0.42,0.4-0.88
			c-0.27-0.37-0.68-0.45-1.21-0.19c-0.52,0.25-1.04,0.49-1.6,0.67c-3.68,1.16-7.16,0.86-10.43-0.92c-2.58-1.52-4.03-3.53-4.36-6.06
			c-0.1-0.8,0.03-1.57,0.15-2.35c0.09-0.54,0.14-1.08-0.07-1.6c-0.35-0.87-1.05-1.51-2.1-1.9c-0.92-0.34-1.74-0.77-2.36-1.43
			c-1.66-1.77-1.44-4.13,0.52-5.7c1.17-0.94,2.59-1.33,4.23-1.29c2.7,0.03,5.19,1.99,5.23,4.12c0.01,0.45-0.03,0.9-0.1,1.35
			c-0.18,1.15,0.21,2.18,0.98,3.14c0.17,0.21,0.22,0.41,0.12,0.64c-0.12,0.26-0.19,0.53-0.28,0.8c-0.19,0.68-0.42,1.37-0.43,2.08
			c0,0.54,0.22,0.79,0.72,0.82c0.51,0.03,0.86-0.23,0.93-0.74c0.13-0.9,0.36-1.78,0.7-2.65c0.86-2.19,2.18-4.17,4.28-5.79
			c1.94-1.51,3.86-3.03,5.79-4.55c0.21-0.17,0.43-0.33,0.7-0.46c0.6-0.27,1.34-0.22,1.83,0.12c0.45,0.32,0.61,0.92,0.36,1.39
			c-0.13,0.25-0.35,0.45-0.59,0.63c-2.39,1.88-4.78,3.76-7.17,5.64c-0.15,0.12-0.3,0.22-0.42,0.36c-0.25,0.28-0.23,0.58,0.06,0.82
			c0.3,0.25,0.71,0.28,1.08,0.08c0.16-0.09,0.29-0.2,0.42-0.31c1.46-1.14,2.91-2.29,4.36-3.43c0.25-0.2,0.52-0.37,0.87-0.45
			c0.66-0.16,1.19,0,1.62,0.4c0.38,0.35,0.47,0.86,0.22,1.27c-0.16,0.25-0.38,0.46-0.63,0.66c-1.12,0.88-2.23,1.76-3.35,2.63
			c-0.14,0.11-0.28,0.21-0.39,0.33c-0.24,0.27-0.22,0.57,0.03,0.8c0.25,0.22,0.66,0.27,1.01,0.14c0.19-0.07,0.33-0.19,0.48-0.31
			c0.62-0.49,1.23-0.98,1.87-1.46c0.46-0.34,1-0.43,1.6-0.27c0.58,0.16,0.9,0.5,1.01,0.97c0.08,0.37-0.06,0.71-0.39,0.97
			c-2.18,1.73-4.32,3.49-6.58,5.15c-1.37,1-3.11,1.34-4.98,1.16c-0.3-0.03-0.59-0.1-0.9-0.1c-0.5,0-0.8,0.18-0.87,0.51
			c-0.07,0.34,0.16,0.64,0.61,0.75c0.87,0.21,1.76,0.26,2.65,0.19c0.82-0.07,1.64-0.2,2.41-0.46c1.14-0.36,2.13-0.9,2.99-1.59
			c0.97-0.76,1.94-1.53,2.99-2.35c0,0.6,0.06,1.11-0.04,1.63c-0.3,1.65-1.08,3.14-2.5,4.4c-0.11,0.09-0.2,0.2-0.27,0.31
			c-0.22,0.32-0.15,0.54,0.25,0.77c0.45,0.21,0.81,0.12,1.13-0.18c0.82-0.74,1.52-1.55,1.98-2.46c0.18-0.35,0.35-0.31,0.69-0.2
			c2.29,0.79,4.6,1.57,6.89,2.35c0.72,0.25,1.1,0.13,1.29-0.45c1.05-3.09,1.14-6.15-0.62-9.13c-0.25-0.42-0.56-0.81-0.89-1.2
			c-0.27-0.32-0.61-0.4-1.07-0.26c-1.07,0.34-2.15,0.67-3.26,1.01c0.27-1.52-0.49-2.53-2.33-3.06c0.85-0.75,1.12-1.61,0.72-2.56
			c-0.32-0.77-1.04-1.27-2.32-1.61c0.4-0.29,0.79-0.53,1.13-0.81c0.84-0.7,1.11-1.54,0.76-2.46c-0.35-0.92-1.16-1.48-2.35-1.67
			c-0.97-0.16-1.92-0.02-2.62,0.53c-2.57,1.99-5.17,3.95-7.62,6.04c-0.59,0.51-1.05,1.1-1.5,1.69c-0.44,0.58-0.81,1.19-1.18,1.84
			c-0.47-0.71-0.56-1.45-0.4-2.19c0.79-3.49-2.79-6.71-7.31-6.55c-1.63,0.05-3.08,0.48-4.32,1.31c-0.23,0.15-0.37,0.18-0.59,0
			c-0.28-0.22-0.79-0.41-0.82-0.64c-0.04-0.26,0.45-0.5,0.72-0.74c1.21-1.07,2.51-2.07,3.9-2.99c0.12-0.08,0.25-0.15,0.39-0.24
			c0.67,1.37,1.84,2.35,3.53,2.92c1.53,0.51,3.09,0.53,4.65,0.09c0.54-0.16,0.68-0.36,0.59-0.8c-0.45-2.09-2.81-3.81-5.52-4.01
			c0.62-0.58,5.17-2.38,6.85-2.7c0.15,0.73,0.39,1.43,0.87,2.08c1.27,1.73,3.9,2.74,6.41,2.43c0.45-0.06,0.68-0.26,0.69-0.65
			c0.05-2.07-1.13-3.59-3.4-4.62c-0.09-0.04-0.19-0.08-0.3-0.12c0.17-0.07,0.33-0.09,0.49-0.11c0.54-0.07,0.81-0.32,0.74-0.68
			c-0.07-0.34-0.39-0.51-0.93-0.45c-1.72,0.19-3.38,0.55-5.03,0.99c-0.12,0.03-0.23,0.05-0.44,0.1c0.77-0.99,1.09-2,1-3.09
			c-0.06-0.67-0.29-1.3-0.68-1.9c-0.2-0.31-0.54-0.38-0.93-0.29c-1.92,0.45-3.3,1.4-4.13,2.85c-0.21,0.37-0.04,0.63,0.37,0.82
			c0.52,0.14,0.81,0.06,1.08-0.36c0.47-0.72,1.12-1.31,1.99-1.74c0.44-0.22,0.52-0.19,0.64,0.2c0.47,1.58-0.54,3.31-2.37,4.09
			c-0.32,0.14-0.46,0.08-0.51-0.19c-0.03-0.17-0.07-0.35-0.16-0.51c-0.18-0.35-0.55-0.48-0.98-0.37c-0.45,0.19-0.59,0.47-0.47,0.88
			c0.11,0.36,0.21,0.73,0.41,1.07c0.08,0.14,0.1,0.22-0.12,0.32c-2.62,1.16-5,2.57-7.25,4.23c-0.02-0.58-0.03-1.11-0.19-1.63
			c-0.39-1.23-1.24-2.21-2.56-2.93c-0.69-0.38-0.93-0.35-1.49,0.16c-2.2,2.03-1.94,5.07,0.59,6.91c0.26,0.19,0.31,0.29,0.06,0.52
			c-1.33,1.24-2.52,2.55-3.57,3.94c-0.07,0.1-0.15,0.19-0.21,0.29c-0.22,0.34-0.12,0.65,0.24,0.82c0.37,0.17,0.77,0.08,1.02-0.24
			c0.51-0.68,1.04-1.34,1.61-1.99c0.13-0.14,0.26-0.28,0.43-0.47c0.16,0.63,0.42,1.18,0.92,1.64c0.11,0.1,0.06,0.21,0.04,0.32
			c-0.62,2.47,0.92,4.97,3.76,6.1c1.73,0.69,2.04,1.18,1.7,2.7c-1.1,4.88,3.21,9.88,9.38,10.88c0.49,0.08,0.99,0.07,1.46,0.22
			C212.97,172.44,213.87,172.44,214.76,172.44z"/>
		<path class="st43" d="M206.99,169.67c1.47,0.9,3.14,1.39,4.97,1.57c2.6,0.26,4.99-0.19,7.19-1.29c0.43-0.22,0.8-0.18,1.15,0.11
			c0.36-0.23,0.64-0.54,1.07-0.7c-0.36-0.4-0.37-0.57,0.03-0.93c1.44-1.3,2.31-2.8,2.61-4.5c0.1-0.61,0.11-1.22,0.03-1.84
			c-0.18,0-0.24,0.11-0.33,0.19c-0.82,0.63-1.64,1.26-2.43,1.91c-0.97,0.81-2.06,1.48-3.36,1.94c-0.12,0.06-0.22,0.14-0.3,0.24
			c-1.43,1.76-3.61,2.58-6.11,2.97c-1.27,0.2-2.55,0.26-3.85,0.23C207.43,169.55,207.18,169.51,206.99,169.67z"/>
		<path class="st44" d="M206.3,138.7c0.65,0.02,0.84,0.15,0.96,0.64c0.21,0.79,0.21,0.79,1.06,0.35c1.79-0.92,2.62-2.69,2.04-4.26
			c-0.1-0.27-0.21-0.26-0.48-0.15c-1.01,0.41-1.78,1.01-2.24,1.83c-0.21,0.38-0.53,0.54-1.04,0.47
			C206.48,137.95,206.33,138.31,206.3,138.7z"/>
		<path class="st45" d="M206.99,169.67c1.08-0.03,2.16,0.02,3.24-0.08c2.69-0.25,5.15-0.89,6.98-2.58c0.29-0.27,0.53-0.57,0.71-0.89
			c-0.69,0.15-1.36,0.33-2.08,0.4c-0.9,0.09-1.78,0.06-2.66-0.09c-0.66-0.11-0.93-0.34-0.82-0.73c0.1-0.35,0.5-0.48,1.12-0.37
			c1.26,0.22,2.5,0.14,3.71-0.21c0.94-0.27,1.75-0.71,2.46-1.26c1.96-1.55,3.93-3.09,5.89-4.63c0.77-0.6,0.8-1.39,0.11-1.94
			c-0.69-0.55-1.71-0.52-2.47,0.07c-0.64,0.49-1.26,0.99-1.9,1.49c-0.42,0.32-0.79,0.36-1.13,0.11c-0.34-0.25-0.3-0.58,0.11-0.91
			c1.27-1,2.55-2.01,3.82-3.01c0.5-0.39,0.67-0.85,0.47-1.37c-0.19-0.5-0.64-0.8-1.28-0.9c-0.63-0.1-1.15,0.09-1.59,0.44
			c-1.52,1.2-3.04,2.4-4.57,3.59c-0.1,0.08-0.2,0.17-0.31,0.23c-0.34,0.17-0.67,0.16-0.95-0.07c-0.26-0.22-0.26-0.48-0.04-0.72
			c0.08-0.09,0.19-0.17,0.3-0.25c2.48-1.95,4.96-3.91,7.45-5.85c0.53-0.42,0.75-0.9,0.53-1.47c-0.31-0.81-1.52-1.15-2.44-0.7
			c-0.19,0.09-0.35,0.22-0.51,0.34c-1.98,1.55-3.93,3.12-5.93,4.65c-2.53,1.95-3.95,4.35-4.75,7.02c-0.15,0.5-0.27,1-0.31,1.52
			c0,0.05-0.02,0.1-0.03,0.15c-0.11,0.38-0.41,0.56-0.84,0.51c-0.39-0.05-0.61-0.3-0.58-0.67c0.05-0.71,0.27-1.41,0.42-2.11
			c0.09-0.22-0.11-0.31-0.28-0.43c-0.8-0.56-1.52-1.17-2.04-1.92c-0.44-0.64-0.49-1.31-0.41-2c0.24-2.12-0.52-3.95-2.5-5.44
			c-0.23-0.18-0.51-0.3-0.82-0.38c-2.64-0.16-5.08,1.22-5.79,3.27c-0.72,2.09,0.54,4.29,3.05,5.21c1.22,0.45,2.07,1.1,2.39,2.14
			c0.14,0.46,0.11,0.92,0.01,1.38c-0.72,3.43,0.64,6.23,4.08,8.42C206.87,169.62,206.93,169.64,206.99,169.67z"/>
		<path class="st43" d="M232.66,164.37c-0.04-1.84-0.42-3.51-1.52-5.05c-0.17-0.24-0.31-0.29-0.65-0.18
			c-1.41,0.46-2.83,0.88-4.25,1.32c-0.1,0.03-0.22,0.05-0.31,0.1c-0.36,0.19-0.65,0.38-0.55,0.81c0.28,1.21,0.2,2.42-0.17,3.62
			c-0.07,0.21,0.01,0.3,0.27,0.39c2.12,0.71,4.23,1.43,6.34,2.16c0.26,0.09,0.32,0.06,0.39-0.17
			C232.5,166.35,232.62,165.32,232.66,164.37z"/>
		<path class="st43" d="M203.08,149.18c0.92,0.51,1.69,1.13,2.22,1.92c0.49,0.74,0.8,1.51,0.96,2.34c0.12,0.63,0.07,1.24-0.01,1.86
			c-0.13,0.97,0.36,1.78,1.09,2.52c0.46,0.47,0.98,0.89,1.57,1.25c0.12,0.07,0.2,0.16,0.22,0.28c0.13-0.35,0.24-0.69,0.39-1.03
			c0.06-0.14,0-0.23-0.09-0.34c-0.99-1.13-1.3-2.36-1.01-3.71c0.49-2.3-1.66-4.65-4.58-5.02
			C203.58,149.21,203.34,149.14,203.08,149.18z"/>
		<path class="st44" d="M195.57,141.75c-1.45,1.4-1.29,3.79,0.66,5.14c0.29,0.2,0.35-0.01,0.45-0.13
			C198,145.14,197.51,142.94,195.57,141.75z"/>
		<path class="st44" d="M203.11,144.16c0.68,1.86,3.15,3.04,5.57,2.67c0.27-0.04,0.35-0.11,0.24-0.34
			C208.08,144.69,205.44,143.63,203.11,144.16z"/>
		<path class="st44" d="M217.87,143.6c0.55,0.02,0.55,0.02,0.45-0.44c-0.38-1.69-2.35-3.06-4.47-3.12
			c-0.41-0.01-0.53,0.03-0.45,0.39C213.77,142.14,215.72,143.54,217.87,143.6z"/>
		<path class="st46" d="M196.31,150.01c-0.07,0.32-0.02,0.61,0.14,0.9C197.07,150.32,197.05,150.42,196.31,150.01z"/>
		<path class="st47" d="M202.98,151.99c0.01-0.46-0.41-0.72-0.97-0.59c-0.72,0.17-1.14,0.57-1.27,1.14
			c-0.11,0.49,0.32,0.79,0.94,0.69C202.33,153.13,202.97,152.51,202.98,151.99z"/>
	</g>
</g>
</svg>
